<svg xmlns="http://www.w3.org/2000/svg" version="1.1" width="316" height="378">
<path d="M 2.449219 13.319336 L 2.449219 5.950195 L 6.729980 5.950195 L 6.729980 7.797852 L 4.167969 7.797852 L 4.167969 13.319336 Z " fill="rgb(0, 0, 0)" fill-opacity="1.000000" />
<path d="M 2.449219 26.319336 L 2.449219 12.300781 L 4.167969 12.300781 L 4.167969 26.319336 Z " fill="rgb(0, 0, 0)" fill-opacity="1.000000" />
<path d="M 2.449219 39.319336 L 2.449219 25.300781 L 4.167969 25.300781 L 4.167969 39.319336 Z " fill="rgb(0, 0, 0)" fill-opacity="1.000000" />
<path d="M 2.449219 52.319336 L 2.449219 38.300781 L 4.167969 38.300781 L 4.167969 52.319336 Z " fill="rgb(0, 0, 0)" fill-opacity="1.000000" />
<path d="M 2.449219 65.319336 L 2.449219 51.300781 L 4.167969 51.300781 L 4.167969 65.319336 Z " fill="rgb(0, 0, 0)" fill-opacity="1.000000" />
<path d="M 2.449219 78.319336 L 2.449219 64.300781 L 4.167969 64.300781 L 4.167969 78.319336 Z " fill="rgb(0, 0, 0)" fill-opacity="1.000000" />
<path d="M 2.449219 91.319336 L 2.449219 77.300781 L 4.167969 77.300781 L 4.167969 91.319336 Z " fill="rgb(0, 0, 0)" fill-opacity="1.000000" />
<path d="M 2.449219 104.319336 L 2.449219 90.300781 L 4.167969 90.300781 L 4.167969 104.319336 Z " fill="rgb(0, 0, 0)" fill-opacity="1.000000" />
<path d="M 2.449219 117.319336 L 2.449219 103.300781 L 4.167969 103.300781 L 4.167969 117.319336 Z " fill="rgb(0, 0, 0)" fill-opacity="1.000000" />
<path d="M 2.449219 130.319336 L 2.449219 116.300781 L 4.167969 116.300781 L 4.167969 130.319336 Z " fill="rgb(0, 0, 0)" fill-opacity="1.000000" />
<path d="M 2.449219 143.319336 L 2.449219 129.300781 L 4.167969 129.300781 L 4.167969 143.319336 Z " fill="rgb(0, 0, 0)" fill-opacity="1.000000" />
<path d="M 2.449219 156.319336 L 2.449219 142.300781 L 4.167969 142.300781 L 4.167969 156.319336 Z " fill="rgb(0, 0, 0)" fill-opacity="1.000000" />
<path d="M 2.449219 163.797852 L 2.449219 155.300781 L 4.167969 155.300781 L 4.167969 161.950195 L 6.729980 161.950195 L 6.729980 163.797852 Z " fill="rgb(0, 0, 0)" fill-opacity="1.000000" />
<path d="M 2.449219 221.319336 L 2.449219 213.950195 L 6.729980 213.950195 L 6.729980 215.797852 L 4.167969 215.797852 L 4.167969 221.319336 Z " fill="rgb(0, 0, 0)" fill-opacity="1.000000" />
<path d="M 2.449219 234.319336 L 2.449219 220.300781 L 4.167969 220.300781 L 4.167969 234.319336 Z " fill="rgb(0, 0, 0)" fill-opacity="1.000000" />
<path d="M 2.449219 247.319336 L 2.449219 233.300781 L 4.167969 233.300781 L 4.167969 247.319336 Z " fill="rgb(0, 0, 0)" fill-opacity="1.000000" />
<path d="M 2.449219 260.319336 L 2.449219 246.300781 L 4.167969 246.300781 L 4.167969 260.319336 Z " fill="rgb(0, 0, 0)" fill-opacity="1.000000" />
<path d="M 2.449219 273.319336 L 2.449219 259.300781 L 4.167969 259.300781 L 4.167969 273.319336 Z " fill="rgb(0, 0, 0)" fill-opacity="1.000000" />
<path d="M 2.449219 286.319336 L 2.449219 272.300781 L 4.167969 272.300781 L 4.167969 286.319336 Z " fill="rgb(0, 0, 0)" fill-opacity="1.000000" />
<path d="M 2.449219 299.319336 L 2.449219 285.300781 L 4.167969 285.300781 L 4.167969 299.319336 Z " fill="rgb(0, 0, 0)" fill-opacity="1.000000" />
<path d="M 2.449219 312.319336 L 2.449219 298.300781 L 4.167969 298.300781 L 4.167969 312.319336 Z " fill="rgb(0, 0, 0)" fill-opacity="1.000000" />
<path d="M 2.449219 325.319336 L 2.449219 311.300781 L 4.167969 311.300781 L 4.167969 325.319336 Z " fill="rgb(0, 0, 0)" fill-opacity="1.000000" />
<path d="M 2.449219 338.319336 L 2.449219 324.300781 L 4.167969 324.300781 L 4.167969 338.319336 Z " fill="rgb(0, 0, 0)" fill-opacity="1.000000" />
<path d="M 2.449219 351.319336 L 2.449219 337.300781 L 4.167969 337.300781 L 4.167969 351.319336 Z " fill="rgb(0, 0, 0)" fill-opacity="1.000000" />
<path d="M 2.449219 364.319336 L 2.449219 350.300781 L 4.167969 350.300781 L 4.167969 364.319336 Z " fill="rgb(0, 0, 0)" fill-opacity="1.000000" />
<path d="M 2.449219 371.797852 L 2.449219 363.300781 L 4.167969 363.300781 L 4.167969 369.950195 L 6.729980 369.950195 L 6.729980 371.797852 Z " fill="rgb(0, 0, 0)" fill-opacity="1.000000" />
<path d="M 6.892578 371.797852 L 6.892578 369.950195 L 13.729980 369.950195 L 13.729980 371.797852 Z " fill="rgb(0, 0, 0)" fill-opacity="1.000000" />
<path d="M 13.892578 371.797852 L 13.892578 369.950195 L 20.729980 369.950195 L 20.729980 371.797852 Z " fill="rgb(0, 0, 0)" fill-opacity="1.000000" />
<path d="M 20.892578 371.797852 L 20.892578 369.950195 L 27.729980 369.950195 L 27.729980 371.797852 Z " fill="rgb(0, 0, 0)" fill-opacity="1.000000" />
<path d="M 27.892578 371.797852 L 27.892578 369.950195 L 34.729980 369.950195 L 34.729980 371.797852 Z " fill="rgb(0, 0, 0)" fill-opacity="1.000000" />
<path d="M 34.892578 371.797852 L 34.892578 369.950195 L 41.729980 369.950195 L 41.729980 371.797852 Z " fill="rgb(0, 0, 0)" fill-opacity="1.000000" />
<path d="M 41.892578 371.797852 L 41.892578 369.950195 L 48.729980 369.950195 L 48.729980 371.797852 Z " fill="rgb(0, 0, 0)" fill-opacity="1.000000" />
<path d="M 48.892578 371.797852 L 48.892578 369.950195 L 55.729980 369.950195 L 55.729980 371.797852 Z " fill="rgb(0, 0, 0)" fill-opacity="1.000000" />
<path d="M 55.892578 371.797852 L 55.892578 369.950195 L 62.729980 369.950195 L 62.729980 371.797852 Z " fill="rgb(0, 0, 0)" fill-opacity="1.000000" />
<path d="M 62.892578 371.797852 L 62.892578 369.950195 L 69.729980 369.950195 L 69.729980 371.797852 Z " fill="rgb(0, 0, 0)" fill-opacity="1.000000" />
<path d="M 69.892578 371.797852 L 69.892578 369.950195 L 76.729980 369.950195 L 76.729980 371.797852 Z " fill="rgb(0, 0, 0)" fill-opacity="1.000000" />
<path d="M 76.892578 371.797852 L 76.892578 369.950195 L 83.729980 369.950195 L 83.729980 371.797852 Z " fill="rgb(0, 0, 0)" fill-opacity="1.000000" />
<path d="M 83.892578 371.797852 L 83.892578 369.950195 L 90.729980 369.950195 L 90.729980 371.797852 Z " fill="rgb(0, 0, 0)" fill-opacity="1.000000" />
<path d="M 90.892578 371.797852 L 90.892578 369.950195 L 97.729980 369.950195 L 97.729980 371.797852 Z " fill="rgb(0, 0, 0)" fill-opacity="1.000000" />
<path d="M 97.892578 371.797852 L 97.892578 369.950195 L 104.729980 369.950195 L 104.729980 371.797852 Z " fill="rgb(0, 0, 0)" fill-opacity="1.000000" />
<path d="M 104.892578 371.797852 L 104.892578 369.950195 L 111.729980 369.950195 L 111.729980 371.797852 Z " fill="rgb(0, 0, 0)" fill-opacity="1.000000" />
<path d="M 111.892578 371.797852 L 111.892578 369.950195 L 118.729980 369.950195 L 118.729980 371.797852 Z " fill="rgb(0, 0, 0)" fill-opacity="1.000000" />
<path d="M 118.892578 371.797852 L 118.892578 369.950195 L 125.729980 369.950195 L 125.729980 371.797852 Z " fill="rgb(0, 0, 0)" fill-opacity="1.000000" />
<path d="M 125.892578 371.797852 L 125.892578 369.950195 L 132.729980 369.950195 L 132.729980 371.797852 Z " fill="rgb(0, 0, 0)" fill-opacity="1.000000" />
<path d="M 132.892578 371.797852 L 132.892578 369.950195 L 139.729980 369.950195 L 139.729980 371.797852 Z " fill="rgb(0, 0, 0)" fill-opacity="1.000000" />
<path d="M 139.892578 371.797852 L 139.892578 369.950195 L 146.729980 369.950195 L 146.729980 371.797852 Z " fill="rgb(0, 0, 0)" fill-opacity="1.000000" />
<path d="M 146.892578 371.797852 L 146.892578 369.950195 L 153.729980 369.950195 L 153.729980 371.797852 Z " fill="rgb(0, 0, 0)" fill-opacity="1.000000" />
<path d="M 153.892578 371.797852 L 153.892578 369.950195 L 160.729980 369.950195 L 160.729980 371.797852 Z " fill="rgb(0, 0, 0)" fill-opacity="1.000000" />
<path d="M 160.892578 371.797852 L 160.892578 369.950195 L 167.729980 369.950195 L 167.729980 371.797852 Z " fill="rgb(0, 0, 0)" fill-opacity="1.000000" />
<path d="M 167.892578 371.797852 L 167.892578 369.950195 L 174.729980 369.950195 L 174.729980 371.797852 Z " fill="rgb(0, 0, 0)" fill-opacity="1.000000" />
<path d="M 174.892578 371.797852 L 174.892578 369.950195 L 181.729980 369.950195 L 181.729980 371.797852 Z " fill="rgb(0, 0, 0)" fill-opacity="1.000000" />
<path d="M 181.892578 371.797852 L 181.892578 369.950195 L 188.729980 369.950195 L 188.729980 371.797852 Z " fill="rgb(0, 0, 0)" fill-opacity="1.000000" />
<path d="M 188.892578 371.797852 L 188.892578 369.950195 L 191.449219 369.950195 L 191.449219 363.300781 L 193.167969 363.300781 L 193.167969 371.797852 Z " fill="rgb(0, 0, 0)" fill-opacity="1.000000" />
<path d="M 30.878906 260.319336 L 30.878906 253.412109 L 34.729980 253.412109 L 34.729980 254.335938 L 31.738281 254.335938 L 31.738281 260.319336 Z " fill="rgb(0, 0, 0)" fill-opacity="1.000000" />
<path d="M 30.878906 273.319336 L 30.878906 259.300781 L 31.738281 259.300781 L 31.738281 273.319336 Z " fill="rgb(0, 0, 0)" fill-opacity="1.000000" />
<path d="M 30.878906 286.319336 L 30.878906 272.300781 L 31.738281 272.300781 L 31.738281 286.319336 Z " fill="rgb(0, 0, 0)" fill-opacity="1.000000" />
<path d="M 30.878906 299.319336 L 30.878906 285.300781 L 31.738281 285.300781 L 31.738281 299.319336 Z " fill="rgb(0, 0, 0)" fill-opacity="1.000000" />
<path d="M 30.878906 312.319336 L 30.878906 298.300781 L 31.738281 298.300781 L 31.738281 312.319336 Z " fill="rgb(0, 0, 0)" fill-opacity="1.000000" />
<path d="M 30.878906 325.319336 L 30.878906 311.300781 L 31.738281 311.300781 L 31.738281 325.319336 Z " fill="rgb(0, 0, 0)" fill-opacity="1.000000" />
<path d="M 30.878906 332.335938 L 30.878906 324.300781 L 31.738281 324.300781 L 31.738281 331.412109 L 34.729980 331.412109 L 34.729980 332.335938 Z " fill="rgb(0, 0, 0)" fill-opacity="1.000000" />
<path d="M 191.449219 351.319336 L 191.449219 337.300781 L 193.167969 337.300781 L 193.167969 351.319336 Z " fill="rgb(0, 0, 0)" fill-opacity="1.000000" />
<path d="M 191.449219 364.319336 L 191.449219 350.300781 L 193.167969 350.300781 L 193.167969 364.319336 Z " fill="rgb(0, 0, 0)" fill-opacity="1.000000" />
<path d="M 34.892578 332.335938 L 34.892578 331.412109 L 41.729980 331.412109 L 41.729980 332.335938 Z " fill="rgb(0, 0, 0)" fill-opacity="1.000000" />
<path d="M 41.892578 332.335938 L 41.892578 331.412109 L 48.729980 331.412109 L 48.729980 332.335938 Z " fill="rgb(0, 0, 0)" fill-opacity="1.000000" />
<path d="M 48.892578 332.335938 L 48.892578 331.412109 L 55.729980 331.412109 L 55.729980 332.335938 Z " fill="rgb(0, 0, 0)" fill-opacity="1.000000" />
<path d="M 55.892578 332.335938 L 55.892578 331.412109 L 62.729980 331.412109 L 62.729980 332.335938 Z " fill="rgb(0, 0, 0)" fill-opacity="1.000000" />
<path d="M 62.892578 332.335938 L 62.892578 331.412109 L 69.729980 331.412109 L 69.729980 332.335938 Z " fill="rgb(0, 0, 0)" fill-opacity="1.000000" />
<path d="M 69.892578 332.335938 L 69.892578 331.412109 L 76.729980 331.412109 L 76.729980 332.335938 Z " fill="rgb(0, 0, 0)" fill-opacity="1.000000" />
<path d="M 76.892578 332.335938 L 76.892578 331.412109 L 83.729980 331.412109 L 83.729980 332.335938 Z " fill="rgb(0, 0, 0)" fill-opacity="1.000000" />
<path d="M 83.892578 332.335938 L 83.892578 331.412109 L 90.729980 331.412109 L 90.729980 332.335938 Z " fill="rgb(0, 0, 0)" fill-opacity="1.000000" />
<path d="M 90.892578 332.335938 L 90.892578 331.412109 L 97.729980 331.412109 L 97.729980 332.335938 Z " fill="rgb(0, 0, 0)" fill-opacity="1.000000" />
<path d="M 97.892578 332.335938 L 97.892578 331.412109 L 104.729980 331.412109 L 104.729980 332.335938 Z " fill="rgb(0, 0, 0)" fill-opacity="1.000000" />
<path d="M 104.892578 332.335938 L 104.892578 331.412109 L 111.729980 331.412109 L 111.729980 332.335938 Z " fill="rgb(0, 0, 0)" fill-opacity="1.000000" />
<path d="M 111.892578 332.335938 L 111.892578 331.412109 L 118.729980 331.412109 L 118.729980 332.335938 Z " fill="rgb(0, 0, 0)" fill-opacity="1.000000" />
<path d="M 118.892578 332.335938 L 118.892578 331.412109 L 125.729980 331.412109 L 125.729980 332.335938 Z " fill="rgb(0, 0, 0)" fill-opacity="1.000000" />
<path d="M 125.892578 332.335938 L 125.892578 331.412109 L 132.729980 331.412109 L 132.729980 332.335938 Z " fill="rgb(0, 0, 0)" fill-opacity="1.000000" />
<path d="M 132.892578 332.335938 L 132.892578 331.412109 L 139.729980 331.412109 L 139.729980 332.335938 Z " fill="rgb(0, 0, 0)" fill-opacity="1.000000" />
<path d="M 139.892578 332.335938 L 139.892578 331.412109 L 146.729980 331.412109 L 146.729980 332.335938 Z " fill="rgb(0, 0, 0)" fill-opacity="1.000000" />
<path d="M 146.892578 332.335938 L 146.892578 331.412109 L 153.729980 331.412109 L 153.729980 332.335938 Z " fill="rgb(0, 0, 0)" fill-opacity="1.000000" />
<path d="M 153.892578 332.335938 L 153.892578 331.412109 L 160.729980 331.412109 L 160.729980 332.335938 Z " fill="rgb(0, 0, 0)" fill-opacity="1.000000" />
<path d="M 160.892578 332.335938 L 160.892578 331.412109 L 163.878906 331.412109 L 163.878906 324.300781 L 164.738281 324.300781 L 164.738281 332.335938 Z " fill="rgb(0, 0, 0)" fill-opacity="1.000000" />
<path d="M 191.449219 338.319336 L 191.449219 324.300781 L 193.167969 324.300781 L 193.167969 338.319336 Z " fill="rgb(0, 0, 0)" fill-opacity="1.000000" />
<path d="M 58.878906 299.319336 L 58.878906 292.412109 L 62.729980 292.412109 L 62.729980 293.335938 L 59.738281 293.335938 L 59.738281 299.319336 Z " fill="rgb(0, 0, 0)" fill-opacity="1.000000" />
<path d="M 58.878906 312.319336 L 58.878906 298.300781 L 59.738281 298.300781 L 59.738281 312.319336 Z " fill="rgb(0, 0, 0)" fill-opacity="1.000000" />
<path d="M 58.878906 319.335938 L 58.878906 311.300781 L 59.738281 311.300781 L 59.738281 318.412109 L 62.729980 318.412109 L 62.729980 319.335938 Z " fill="rgb(0, 0, 0)" fill-opacity="1.000000" />
<path d="M 62.892578 319.335938 L 62.892578 318.412109 L 69.729980 318.412109 L 69.729980 319.335938 Z " fill="rgb(0, 0, 0)" fill-opacity="1.000000" />
<path d="M 69.892578 319.335938 L 69.892578 318.412109 L 76.729980 318.412109 L 76.729980 319.335938 Z " fill="rgb(0, 0, 0)" fill-opacity="1.000000" />
<path d="M 76.892578 319.335938 L 76.892578 318.412109 L 83.729980 318.412109 L 83.729980 319.335938 Z " fill="rgb(0, 0, 0)" fill-opacity="1.000000" />
<path d="M 83.892578 319.335938 L 83.892578 318.412109 L 90.729980 318.412109 L 90.729980 319.335938 Z " fill="rgb(0, 0, 0)" fill-opacity="1.000000" />
<path d="M 90.892578 319.335938 L 90.892578 318.412109 L 97.729980 318.412109 L 97.729980 319.335938 Z " fill="rgb(0, 0, 0)" fill-opacity="1.000000" />
<path d="M 97.892578 319.335938 L 97.892578 318.412109 L 104.729980 318.412109 L 104.729980 319.335938 Z " fill="rgb(0, 0, 0)" fill-opacity="1.000000" />
<path d="M 104.892578 319.335938 L 104.892578 318.412109 L 111.729980 318.412109 L 111.729980 319.335938 Z " fill="rgb(0, 0, 0)" fill-opacity="1.000000" />
<path d="M 111.892578 319.335938 L 111.892578 318.412109 L 118.729980 318.412109 L 118.729980 319.335938 Z " fill="rgb(0, 0, 0)" fill-opacity="1.000000" />
<path d="M 118.892578 319.335938 L 118.892578 318.412109 L 125.729980 318.412109 L 125.729980 319.335938 Z " fill="rgb(0, 0, 0)" fill-opacity="1.000000" />
<path d="M 125.892578 319.335938 L 125.892578 318.412109 L 132.729980 318.412109 L 132.729980 319.335938 Z " fill="rgb(0, 0, 0)" fill-opacity="1.000000" />
<path d="M 132.892578 319.335938 L 132.892578 318.412109 L 135.878906 318.412109 L 135.878906 311.300781 L 136.738281 311.300781 L 136.738281 319.335938 Z " fill="rgb(0, 0, 0)" fill-opacity="1.000000" />
<path d="M 163.878906 325.319336 L 163.878906 311.300781 L 164.738281 311.300781 L 164.738281 325.319336 Z " fill="rgb(0, 0, 0)" fill-opacity="1.000000" />
<path d="M 191.449219 325.319336 L 191.449219 311.300781 L 193.167969 311.300781 L 193.167969 325.319336 Z " fill="rgb(0, 0, 0)" fill-opacity="1.000000" />
<path d="M 62.892578 311.750000 L 62.892578 300.535156 L 69.729980 300.535156 L 69.729980 311.750000 Z " fill="rgb(0, 0, 0)" fill-opacity="1.000000" />
<path d="M 69.892578 311.750000 L 69.892578 300.535156 L 76.729980 300.535156 L 76.729980 311.750000 Z " fill="rgb(0, 0, 0)" fill-opacity="1.000000" />
<path d="M 76.892578 311.750000 L 76.892578 300.535156 L 83.729980 300.535156 L 83.729980 311.750000 Z " fill="rgb(0, 0, 0)" fill-opacity="1.000000" />
<path d="M 83.892578 311.750000 L 83.892578 300.535156 L 90.729980 300.535156 L 90.729980 311.750000 Z " fill="rgb(0, 0, 0)" fill-opacity="1.000000" />
<path d="M 90.892578 311.750000 L 90.892578 300.535156 L 97.729980 300.535156 L 97.729980 311.750000 Z " fill="rgb(0, 0, 0)" fill-opacity="1.000000" />
<path d="M 97.892578 311.750000 L 97.892578 300.535156 L 104.729980 300.535156 L 104.729980 311.750000 Z " fill="rgb(0, 0, 0)" fill-opacity="1.000000" />
<path d="M 104.892578 311.750000 L 104.892578 300.535156 L 111.729980 300.535156 L 111.729980 311.750000 Z " fill="rgb(0, 0, 0)" fill-opacity="1.000000" />
<path d="M 111.892578 311.750000 L 111.892578 300.535156 L 118.729980 300.535156 L 118.729980 311.750000 Z " fill="rgb(0, 0, 0)" fill-opacity="1.000000" />
<path d="M 118.892578 311.750000 L 118.892578 300.535156 L 125.729980 300.535156 L 125.729980 311.750000 Z " fill="rgb(0, 0, 0)" fill-opacity="1.000000" />
<path d="M 125.892578 311.750000 L 125.892578 300.535156 L 132.729980 300.535156 L 132.729980 311.750000 Z " fill="rgb(0, 0, 0)" fill-opacity="1.000000" />
<path d="M 135.878906 312.319336 L 135.878906 298.300781 L 136.738281 298.300781 L 136.738281 312.319336 Z " fill="rgb(0, 0, 0)" fill-opacity="1.000000" />
<path d="M 140.032227 306.142578 L 146.590332 302.866211 L 146.590332 309.418945 Z " fill="rgb(0, 0, 0)" fill-opacity="1.000000" />
<path d="M 146.892578 306.335938 L 146.892578 305.412109 L 153.729980 305.412109 L 153.729980 306.335938 Z " fill="rgb(0, 0, 0)" fill-opacity="1.000000" />
<path d="M 153.892578 306.335938 L 153.892578 305.412109 L 160.729980 305.412109 L 160.729980 306.335938 Z " fill="rgb(0, 0, 0)" fill-opacity="1.000000" />
<path d="M 164.738281 306.335938 L 164.738281 312.319336 L 163.878906 312.319336 L 163.878906 306.335938 L 160.892578 306.335938 L 160.892578 305.412109 L 163.878906 305.412109 L 163.878906 298.300781 L 164.738281 298.300781 L 164.738281 305.412109 L 167.729980 305.412109 L 167.729980 306.335938 Z " fill="rgb(0, 0, 0)" fill-opacity="1.000000" />
<path d="M 167.892578 306.335938 L 167.892578 305.412109 L 174.729980 305.412109 L 174.729980 306.335938 Z " fill="rgb(0, 0, 0)" fill-opacity="1.000000" />
<path d="M 174.892578 306.335938 L 174.892578 305.412109 L 181.729980 305.412109 L 181.729980 306.335938 Z " fill="rgb(0, 0, 0)" fill-opacity="1.000000" />
<path d="M 181.892578 306.335938 L 181.892578 305.412109 L 188.729980 305.412109 L 188.729980 306.335938 Z " fill="rgb(0, 0, 0)" fill-opacity="1.000000" />
<path d="M 191.449219 312.319336 L 191.449219 306.797852 L 188.892578 306.797852 L 188.892578 304.950195 L 191.449219 304.950195 L 191.449219 298.300781 L 193.167969 298.300781 L 193.167969 304.950195 L 195.729980 304.950195 L 195.729980 306.797852 L 193.167969 306.797852 L 193.167969 312.319336 Z " fill="rgb(0, 0, 0)" fill-opacity="1.000000" />
<path d="M 195.892578 306.335938 L 195.892578 305.412109 L 202.729980 305.412109 L 202.729980 306.335938 Z " fill="rgb(0, 0, 0)" fill-opacity="1.000000" />
<path d="M 202.892578 306.335938 L 202.892578 305.412109 L 209.729980 305.412109 L 209.729980 306.335938 Z " fill="rgb(0, 0, 0)" fill-opacity="1.000000" />
<path d="M 209.892578 306.335938 L 209.892578 305.412109 L 216.729980 305.412109 L 216.729980 306.335938 Z " fill="rgb(0, 0, 0)" fill-opacity="1.000000" />
<path d="M 216.892578 306.335938 L 216.892578 305.412109 L 223.729980 305.412109 L 223.729980 306.335938 Z " fill="rgb(0, 0, 0)" fill-opacity="1.000000" />
<path d="M 223.892578 306.335938 L 223.892578 305.412109 L 226.878906 305.412109 L 226.878906 298.300781 L 227.738281 298.300781 L 227.738281 306.335938 Z " fill="rgb(0, 0, 0)" fill-opacity="1.000000" />
<path d="M 62.892578 293.335938 L 62.892578 292.412109 L 69.729980 292.412109 L 69.729980 293.335938 Z " fill="rgb(0, 0, 0)" fill-opacity="1.000000" />
<path d="M 69.892578 293.335938 L 69.892578 292.412109 L 76.729980 292.412109 L 76.729980 293.335938 Z " fill="rgb(0, 0, 0)" fill-opacity="1.000000" />
<path d="M 80.308594 288.937012 L 79.164551 293.040527 L 81.452637 293.040527 Z M 79.653320 287.980957 L 80.969238 287.980957 L 83.423828 296.000000 L 82.301270 296.000000 L 81.710449 293.910645 L 78.901367 293.910645 L 78.321289 296.000000 L 77.198730 296.000000 Z " fill="rgb(0, 0, 0)" fill-opacity="1.000000" />
<path d="M 87.297852 288.276367 L 87.297852 289.984375 L 89.542969 289.984375 L 89.542969 290.752441 L 87.297852 290.752441 L 87.297852 294.018066 Q 87.297852 294.684082 87.550293 294.947266 Q 87.802734 295.210449 88.431152 295.210449 L 89.542969 295.210449 L 89.542969 296.000000 L 88.334473 296.000000 Q 87.222656 296.000000 86.766113 295.554199 Q 86.309570 295.108398 86.309570 294.018066 L 86.309570 290.752441 L 84.703613 290.752441 L 84.703613 289.984375 L 86.309570 289.984375 L 86.309570 288.276367 Z " fill="rgb(0, 0, 0)" fill-opacity="1.000000" />
<path d="M 94.297852 288.276367 L 94.297852 289.984375 L 96.542969 289.984375 L 96.542969 290.752441 L 94.297852 290.752441 L 94.297852 294.018066 Q 94.297852 294.684082 94.550293 294.947266 Q 94.802734 295.210449 95.431152 295.210449 L 96.542969 295.210449 L 96.542969 296.000000 L 95.334473 296.000000 Q 94.222656 296.000000 93.766113 295.554199 Q 93.309570 295.108398 93.309570 294.018066 L 93.309570 290.752441 L 91.703613 290.752441 L 91.703613 289.984375 L 93.309570 289.984375 L 93.309570 288.276367 Z " fill="rgb(0, 0, 0)" fill-opacity="1.000000" />
<path d="M 104.203613 291.225098 Q 103.886719 290.978027 103.559082 290.865234 Q 103.231445 290.752441 102.839355 290.752441 Q 101.915527 290.752441 101.426758 291.332520 Q 100.937988 291.912598 100.937988 293.008301 L 100.937988 296.000000 L 99.944336 296.000000 L 99.944336 289.984375 L 100.937988 289.984375 L 100.937988 291.160645 Q 101.185059 290.521484 101.697998 290.180420 Q 102.210938 289.839355 102.914551 289.839355 Q 103.279785 289.839355 103.596680 289.930664 Q 103.913574 290.021973 104.203613 290.215332 Z " fill="rgb(0, 0, 0)" fill-opacity="1.000000" />
<path d="M 114.003418 295.086914 L 117.687988 295.086914 L 117.687988 296.000000 L 112.816406 296.000000 L 112.816406 295.086914 Q 113.820801 294.028809 114.572754 293.217773 Q 115.324707 292.406738 115.609375 292.073730 Q 116.146484 291.418457 116.334473 291.012939 Q 116.522461 290.607422 116.522461 290.183105 Q 116.522461 289.511719 116.127686 289.130371 Q 115.732910 288.749023 115.045410 288.749023 Q 114.556641 288.749023 114.019531 288.926270 Q 113.482422 289.103516 112.880859 289.463379 L 112.880859 288.367676 Q 113.434082 288.104492 113.968506 287.970215 Q 114.502930 287.835938 115.023926 287.835938 Q 116.200195 287.835938 116.917236 288.461670 Q 117.634277 289.087402 117.634277 290.102539 Q 117.634277 290.618164 117.395264 291.133789 Q 117.156250 291.649414 116.619141 292.272461 Q 116.318359 292.621582 115.746338 293.239258 Q 115.174316 293.856934 114.003418 295.086914 Z " fill="rgb(0, 0, 0)" fill-opacity="1.000000" />
<path d="M 118.892578 293.335938 L 118.892578 292.412109 L 125.729980 292.412109 L 125.729980 293.335938 Z " fill="rgb(0, 0, 0)" fill-opacity="1.000000" />
<path d="M 125.892578 293.335938 L 125.892578 292.412109 L 132.729980 292.412109 L 132.729980 293.335938 Z " fill="rgb(0, 0, 0)" fill-opacity="1.000000" />
<path d="M 135.878906 299.319336 L 135.878906 293.335938 L 132.892578 293.335938 L 132.892578 292.412109 L 136.738281 292.412109 L 136.738281 299.319336 Z " fill="rgb(0, 0, 0)" fill-opacity="1.000000" />
<path d="M 163.878906 299.319336 L 163.878906 285.300781 L 164.738281 285.300781 L 164.738281 299.319336 Z " fill="rgb(0, 0, 0)" fill-opacity="1.000000" />
<path d="M 191.449219 299.319336 L 191.449219 285.300781 L 193.167969 285.300781 L 193.167969 299.319336 Z " fill="rgb(0, 0, 0)" fill-opacity="1.000000" />
<path d="M 226.878906 299.319336 L 226.878906 285.300781 L 227.738281 285.300781 L 227.738281 299.319336 Z " fill="rgb(0, 0, 0)" fill-opacity="1.000000" />
<path d="M 71.079590 261.980957 L 75.532227 261.980957 L 75.532227 262.894043 L 73.851074 262.894043 L 73.851074 269.086914 L 75.532227 269.086914 L 75.532227 270.000000 L 71.079590 270.000000 L 71.079590 269.086914 L 72.760742 269.086914 L 72.760742 262.894043 L 71.079590 262.894043 Z " fill="rgb(0, 0, 0)" fill-opacity="1.000000" />
<path d="M 163.878906 286.319336 L 163.878906 272.300781 L 164.738281 272.300781 L 164.738281 286.319336 Z " fill="rgb(0, 0, 0)" fill-opacity="1.000000" />
<path d="M 191.449219 286.319336 L 191.449219 272.300781 L 193.167969 272.300781 L 193.167969 286.319336 Z " fill="rgb(0, 0, 0)" fill-opacity="1.000000" />
<path d="M 226.878906 286.319336 L 226.878906 272.300781 L 227.738281 272.300781 L 227.738281 286.319336 Z " fill="rgb(0, 0, 0)" fill-opacity="1.000000" />
<path d="M 80.297852 262.276367 L 80.297852 263.984375 L 82.542969 263.984375 L 82.542969 264.752441 L 80.297852 264.752441 L 80.297852 268.018066 Q 80.297852 268.684082 80.550293 268.947266 Q 80.802734 269.210449 81.431152 269.210449 L 82.542969 269.210449 L 82.542969 270.000000 L 81.334473 270.000000 Q 80.222656 270.000000 79.766113 269.554199 Q 79.309570 269.108398 79.309570 268.018066 L 79.309570 264.752441 L 77.703613 264.752441 L 77.703613 263.984375 L 79.309570 263.984375 L 79.309570 262.276367 Z " fill="rgb(0, 0, 0)" fill-opacity="1.000000" />
<path d="M 90.015625 266.498047 L 90.015625 266.981445 L 85.734863 266.981445 L 85.734863 267.013672 Q 85.691895 268.243652 86.204834 268.780762 Q 86.717773 269.317871 87.652344 269.317871 Q 88.125000 269.317871 88.640625 269.167480 Q 89.156250 269.017090 89.741699 268.710938 L 89.741699 269.693848 Q 89.177734 269.924805 88.654053 270.040283 Q 88.130371 270.155762 87.641602 270.155762 Q 86.239746 270.155762 85.450195 269.315186 Q 84.660645 268.474609 84.660645 266.997559 Q 84.660645 265.558105 85.434082 264.698730 Q 86.207520 263.839355 87.496582 263.839355 Q 88.645996 263.839355 89.309326 264.618164 Q 89.972656 265.396973 90.015625 266.498047 Z M 89.027344 266.208008 Q 88.962891 265.584961 88.573486 265.131104 Q 88.184082 264.677246 87.453613 264.677246 Q 86.739258 264.677246 86.277344 265.149902 Q 85.815430 265.622559 85.772461 266.213379 Z " fill="rgb(0, 0, 0)" fill-opacity="1.000000" />
<path d="M 94.630859 264.596680 Q 94.813477 264.209961 95.095459 264.024658 Q 95.377441 263.839355 95.774902 263.839355 Q 96.500000 263.839355 96.798096 264.400635 Q 97.096191 264.961914 97.096191 266.514160 L 97.096191 270.000000 L 96.193848 270.000000 L 96.193848 266.557129 Q 96.193848 265.284180 96.051514 264.975342 Q 95.909180 264.666504 95.533203 264.666504 Q 95.103516 264.666504 94.945068 264.996826 Q 94.786621 265.327148 94.786621 266.557129 L 94.786621 270.000000 L 93.884277 270.000000 L 93.884277 266.557129 Q 93.884277 265.268066 93.731201 264.967285 Q 93.578125 264.666504 93.180664 264.666504 Q 92.788574 264.666504 92.635498 264.996826 Q 92.482422 265.327148 92.482422 266.557129 L 92.482422 270.000000 L 91.585449 270.000000 L 91.585449 263.984375 L 92.482422 263.984375 L 92.482422 264.500000 Q 92.659668 264.177734 92.925537 264.008545 Q 93.191406 263.839355 93.529785 263.839355 Q 93.937988 263.839355 94.209229 264.027344 Q 94.480469 264.215332 94.630859 264.596680 Z " fill="rgb(0, 0, 0)" fill-opacity="1.000000" />
<path d="M 108.308594 266.191895 Q 107.583496 266.191895 107.188721 266.597412 Q 106.793945 267.002930 106.793945 267.744141 Q 106.793945 268.485352 107.194092 268.896240 Q 107.594238 269.307129 108.308594 269.307129 Q 109.039062 269.307129 109.433838 268.901611 Q 109.828613 268.496094 109.828613 267.744141 Q 109.828613 267.008301 109.428467 266.600098 Q 109.028320 266.191895 108.308594 266.191895 Z M 107.363281 265.740723 Q 106.670410 265.563477 106.281006 265.080078 Q 105.891602 264.596680 105.891602 263.914551 Q 105.891602 262.958496 106.541504 262.397217 Q 107.191406 261.835938 108.308594 261.835938 Q 109.431152 261.835938 110.081055 262.397217 Q 110.730957 262.958496 110.730957 263.914551 Q 110.730957 264.596680 110.341553 265.080078 Q 109.952148 265.563477 109.259277 265.740723 Q 110.064941 265.917969 110.491943 266.455078 Q 110.918945 266.992188 110.918945 267.846191 Q 110.918945 268.931152 110.226074 269.543457 Q 109.533203 270.155762 108.308594 270.155762 Q 107.083984 270.155762 106.393799 269.546143 Q 105.703613 268.936523 105.703613 267.856934 Q 105.703613 266.997559 106.130615 266.457764 Q 106.557617 265.917969 107.363281 265.740723 Z M 106.971191 264.016602 Q 106.971191 264.661133 107.314941 264.999512 Q 107.658691 265.337891 108.308594 265.337891 Q 108.963867 265.337891 109.307617 264.999512 Q 109.651367 264.661133 109.651367 264.016602 Q 109.651367 263.361328 109.310303 263.017578 Q 108.969238 262.673828 108.308594 262.673828 Q 107.658691 262.673828 107.314941 263.020264 Q 106.971191 263.366699 106.971191 264.016602 Z " fill="rgb(0, 0, 0)" fill-opacity="1.000000" />
<path d="M 115.308594 266.191895 Q 114.583496 266.191895 114.188721 266.597412 Q 113.793945 267.002930 113.793945 267.744141 Q 113.793945 268.485352 114.194092 268.896240 Q 114.594238 269.307129 115.308594 269.307129 Q 116.039062 269.307129 116.433838 268.901611 Q 116.828613 268.496094 116.828613 267.744141 Q 116.828613 267.008301 116.428467 266.600098 Q 116.028320 266.191895 115.308594 266.191895 Z M 114.363281 265.740723 Q 113.670410 265.563477 113.281006 265.080078 Q 112.891602 264.596680 112.891602 263.914551 Q 112.891602 262.958496 113.541504 262.397217 Q 114.191406 261.835938 115.308594 261.835938 Q 116.431152 261.835938 117.081055 262.397217 Q 117.730957 262.958496 117.730957 263.914551 Q 117.730957 264.596680 117.341553 265.080078 Q 116.952148 265.563477 116.259277 265.740723 Q 117.064941 265.917969 117.491943 266.455078 Q 117.918945 266.992188 117.918945 267.846191 Q 117.918945 268.931152 117.226074 269.543457 Q 116.533203 270.155762 115.308594 270.155762 Q 114.083984 270.155762 113.393799 269.546143 Q 112.703613 268.936523 112.703613 267.856934 Q 112.703613 266.997559 113.130615 266.457764 Q 113.557617 265.917969 114.363281 265.740723 Z M 113.971191 264.016602 Q 113.971191 264.661133 114.314941 264.999512 Q 114.658691 265.337891 115.308594 265.337891 Q 115.963867 265.337891 116.307617 264.999512 Q 116.651367 264.661133 116.651367 264.016602 Q 116.651367 263.361328 116.310303 263.017578 Q 115.969238 262.673828 115.308594 262.673828 Q 114.658691 262.673828 114.314941 263.020264 Q 113.971191 263.366699 113.971191 264.016602 Z " fill="rgb(0, 0, 0)" fill-opacity="1.000000" />
<path d="M 163.878906 273.319336 L 163.878906 259.300781 L 164.738281 259.300781 L 164.738281 273.319336 Z " fill="rgb(0, 0, 0)" fill-opacity="1.000000" />
<path d="M 191.449219 273.319336 L 191.449219 259.300781 L 193.167969 259.300781 L 193.167969 273.319336 Z " fill="rgb(0, 0, 0)" fill-opacity="1.000000" />
<path d="M 226.878906 273.319336 L 226.878906 259.300781 L 227.738281 259.300781 L 227.738281 273.319336 Z " fill="rgb(0, 0, 0)" fill-opacity="1.000000" />
<path d="M 34.892578 254.335938 L 34.892578 253.412109 L 41.729980 253.412109 L 41.729980 254.335938 Z " fill="rgb(0, 0, 0)" fill-opacity="1.000000" />
<path d="M 41.892578 254.335938 L 41.892578 253.412109 L 48.729980 253.412109 L 48.729980 254.335938 Z " fill="rgb(0, 0, 0)" fill-opacity="1.000000" />
<path d="M 48.892578 254.335938 L 48.892578 253.412109 L 55.729980 253.412109 L 55.729980 254.335938 Z " fill="rgb(0, 0, 0)" fill-opacity="1.000000" />
<path d="M 55.892578 254.335938 L 55.892578 253.412109 L 62.729980 253.412109 L 62.729980 254.335938 Z " fill="rgb(0, 0, 0)" fill-opacity="1.000000" />
<path d="M 62.892578 254.335938 L 62.892578 253.412109 L 69.729980 253.412109 L 69.729980 254.335938 Z " fill="rgb(0, 0, 0)" fill-opacity="1.000000" />
<path d="M 69.892578 254.335938 L 69.892578 253.412109 L 76.729980 253.412109 L 76.729980 254.335938 Z " fill="rgb(0, 0, 0)" fill-opacity="1.000000" />
<path d="M 76.892578 254.335938 L 76.892578 253.412109 L 83.729980 253.412109 L 83.729980 254.335938 Z " fill="rgb(0, 0, 0)" fill-opacity="1.000000" />
<path d="M 83.892578 254.335938 L 83.892578 253.412109 L 90.729980 253.412109 L 90.729980 254.335938 Z " fill="rgb(0, 0, 0)" fill-opacity="1.000000" />
<path d="M 90.892578 254.335938 L 90.892578 253.412109 L 97.729980 253.412109 L 97.729980 254.335938 Z " fill="rgb(0, 0, 0)" fill-opacity="1.000000" />
<path d="M 97.892578 254.335938 L 97.892578 253.412109 L 104.729980 253.412109 L 104.729980 254.335938 Z " fill="rgb(0, 0, 0)" fill-opacity="1.000000" />
<path d="M 104.892578 254.335938 L 104.892578 253.412109 L 111.729980 253.412109 L 111.729980 254.335938 Z " fill="rgb(0, 0, 0)" fill-opacity="1.000000" />
<path d="M 111.892578 254.335938 L 111.892578 253.412109 L 118.729980 253.412109 L 118.729980 254.335938 Z " fill="rgb(0, 0, 0)" fill-opacity="1.000000" />
<path d="M 118.892578 254.335938 L 118.892578 253.412109 L 125.729980 253.412109 L 125.729980 254.335938 Z " fill="rgb(0, 0, 0)" fill-opacity="1.000000" />
<path d="M 125.892578 254.335938 L 125.892578 253.412109 L 132.729980 253.412109 L 132.729980 254.335938 Z " fill="rgb(0, 0, 0)" fill-opacity="1.000000" />
<path d="M 132.892578 254.335938 L 132.892578 253.412109 L 139.729980 253.412109 L 139.729980 254.335938 Z " fill="rgb(0, 0, 0)" fill-opacity="1.000000" />
<path d="M 139.892578 254.335938 L 139.892578 253.412109 L 146.729980 253.412109 L 146.729980 254.335938 Z " fill="rgb(0, 0, 0)" fill-opacity="1.000000" />
<path d="M 146.892578 254.335938 L 146.892578 253.412109 L 153.729980 253.412109 L 153.729980 254.335938 Z " fill="rgb(0, 0, 0)" fill-opacity="1.000000" />
<path d="M 153.892578 254.335938 L 153.892578 253.412109 L 160.729980 253.412109 L 160.729980 254.335938 Z " fill="rgb(0, 0, 0)" fill-opacity="1.000000" />
<path d="M 163.878906 260.319336 L 163.878906 254.335938 L 160.892578 254.335938 L 160.892578 253.412109 L 164.738281 253.412109 L 164.738281 260.319336 Z " fill="rgb(0, 0, 0)" fill-opacity="1.000000" />
<path d="M 191.449219 260.319336 L 191.449219 246.300781 L 193.167969 246.300781 L 193.167969 260.319336 Z " fill="rgb(0, 0, 0)" fill-opacity="1.000000" />
<path d="M 226.878906 260.319336 L 226.878906 246.300781 L 227.738281 246.300781 L 227.738281 260.319336 Z " fill="rgb(0, 0, 0)" fill-opacity="1.000000" />
<path d="M 191.449219 234.319336 L 191.449219 220.300781 L 193.167969 220.300781 L 193.167969 234.319336 Z " fill="rgb(0, 0, 0)" fill-opacity="1.000000" />
<path d="M 191.449219 247.319336 L 191.449219 233.300781 L 193.167969 233.300781 L 193.167969 247.319336 Z " fill="rgb(0, 0, 0)" fill-opacity="1.000000" />
<path d="M 226.878906 234.319336 L 226.878906 220.300781 L 227.738281 220.300781 L 227.738281 234.319336 Z " fill="rgb(0, 0, 0)" fill-opacity="1.000000" />
<path d="M 226.878906 247.319336 L 226.878906 233.300781 L 227.738281 233.300781 L 227.738281 247.319336 Z " fill="rgb(0, 0, 0)" fill-opacity="1.000000" />
<path d="M 6.892578 215.797852 L 6.892578 213.950195 L 13.729980 213.950195 L 13.729980 215.797852 Z " fill="rgb(0, 0, 0)" fill-opacity="1.000000" />
<path d="M 13.892578 215.797852 L 13.892578 213.950195 L 20.729980 213.950195 L 20.729980 215.797852 Z " fill="rgb(0, 0, 0)" fill-opacity="1.000000" />
<path d="M 20.892578 215.797852 L 20.892578 213.950195 L 27.729980 213.950195 L 27.729980 215.797852 Z " fill="rgb(0, 0, 0)" fill-opacity="1.000000" />
<path d="M 27.892578 215.797852 L 27.892578 213.950195 L 34.729980 213.950195 L 34.729980 215.797852 Z " fill="rgb(0, 0, 0)" fill-opacity="1.000000" />
<path d="M 34.892578 215.797852 L 34.892578 213.950195 L 41.729980 213.950195 L 41.729980 215.797852 Z " fill="rgb(0, 0, 0)" fill-opacity="1.000000" />
<path d="M 41.892578 215.797852 L 41.892578 213.950195 L 48.729980 213.950195 L 48.729980 215.797852 Z " fill="rgb(0, 0, 0)" fill-opacity="1.000000" />
<path d="M 48.892578 215.797852 L 48.892578 213.950195 L 55.729980 213.950195 L 55.729980 215.797852 Z " fill="rgb(0, 0, 0)" fill-opacity="1.000000" />
<path d="M 55.892578 215.797852 L 55.892578 213.950195 L 62.729980 213.950195 L 62.729980 215.797852 Z " fill="rgb(0, 0, 0)" fill-opacity="1.000000" />
<path d="M 64.154785 209.980957 L 65.245117 209.980957 L 65.245117 217.086914 L 69.117676 217.086914 L 69.117676 218.000000 L 64.154785 218.000000 Z " fill="rgb(0, 0, 0)" fill-opacity="1.000000" />
<path d="M 73.308594 212.677246 Q 72.556641 212.677246 72.169922 213.262695 Q 71.783203 213.848145 71.783203 214.997559 Q 71.783203 216.141602 72.169922 216.729736 Q 72.556641 217.317871 73.308594 217.317871 Q 74.065918 217.317871 74.452637 216.729736 Q 74.839355 216.141602 74.839355 214.997559 Q 74.839355 213.848145 74.452637 213.262695 Q 74.065918 212.677246 73.308594 212.677246 Z M 73.308594 211.839355 Q 74.560059 211.839355 75.223389 212.650391 Q 75.886719 213.461426 75.886719 214.997559 Q 75.886719 216.539062 75.226074 217.347412 Q 74.565430 218.155762 73.308594 218.155762 Q 72.057129 218.155762 71.396484 217.347412 Q 70.735840 216.539062 70.735840 214.997559 Q 70.735840 213.461426 71.396484 212.650391 Q 72.057129 211.839355 73.308594 211.839355 Z " fill="rgb(0, 0, 0)" fill-opacity="1.000000" />
<path d="M 82.698730 217.693848 Q 82.301270 217.924805 81.879639 218.040283 Q 81.458008 218.155762 81.017578 218.155762 Q 79.621094 218.155762 78.834229 217.317871 Q 78.047363 216.479980 78.047363 214.997559 Q 78.047363 213.515137 78.834229 212.677246 Q 79.621094 211.839355 81.017578 211.839355 Q 81.452637 211.839355 81.866211 211.952148 Q 82.279785 212.064941 82.698730 212.301270 L 82.698730 213.337891 Q 82.306641 212.988770 81.911865 212.833008 Q 81.517090 212.677246 81.017578 212.677246 Q 80.088379 212.677246 79.588867 213.278809 Q 79.089355 213.880371 79.089355 214.997559 Q 79.089355 216.109375 79.591553 216.713623 Q 80.093750 217.317871 81.017578 217.317871 Q 81.533203 217.317871 81.941406 217.159424 Q 82.349609 217.000977 82.698730 216.667969 Z " fill="rgb(0, 0, 0)" fill-opacity="1.000000" />
<path d="M 87.770508 214.976074 L 87.442871 214.976074 Q 86.578125 214.976074 86.140381 215.279541 Q 85.702637 215.583008 85.702637 216.184570 Q 85.702637 216.727051 86.030273 217.027832 Q 86.357910 217.328613 86.937988 217.328613 Q 87.754395 217.328613 88.221680 216.761963 Q 88.688965 216.195312 88.694336 215.196289 L 88.694336 214.976074 Z M 89.687988 214.567871 L 89.687988 218.000000 L 88.694336 218.000000 L 88.694336 217.108398 Q 88.377441 217.645508 87.896729 217.900635 Q 87.416016 218.155762 86.728516 218.155762 Q 85.810059 218.155762 85.262207 217.637451 Q 84.714355 217.119141 84.714355 216.249023 Q 84.714355 215.244629 85.388428 214.723633 Q 86.062500 214.202637 87.367676 214.202637 L 88.694336 214.202637 L 88.694336 214.046875 Q 88.688965 213.327148 88.329102 213.002197 Q 87.969238 212.677246 87.179688 212.677246 Q 86.674805 212.677246 86.159180 212.822266 Q 85.643555 212.967285 85.154785 213.246582 L 85.154785 212.258301 Q 85.702637 212.048828 86.204834 211.944092 Q 86.707031 211.839355 87.179688 211.839355 Q 87.926270 211.839355 88.455322 212.059570 Q 88.984375 212.279785 89.312012 212.720215 Q 89.516113 212.988770 89.602051 213.383545 Q 89.687988 213.778320 89.687988 214.567871 Z " fill="rgb(0, 0, 0)" fill-opacity="1.000000" />
<path d="M 94.297852 210.276367 L 94.297852 211.984375 L 96.542969 211.984375 L 96.542969 212.752441 L 94.297852 212.752441 L 94.297852 216.018066 Q 94.297852 216.684082 94.550293 216.947266 Q 94.802734 217.210449 95.431152 217.210449 L 96.542969 217.210449 L 96.542969 218.000000 L 95.334473 218.000000 Q 94.222656 218.000000 93.766113 217.554199 Q 93.309570 217.108398 93.309570 216.018066 L 93.309570 212.752441 L 91.703613 212.752441 L 91.703613 211.984375 L 93.309570 211.984375 L 93.309570 210.276367 Z " fill="rgb(0, 0, 0)" fill-opacity="1.000000" />
<path d="M 99.697266 212.005859 L 102.227051 212.005859 L 102.227051 217.231934 L 104.187500 217.231934 L 104.187500 218.000000 L 99.278320 218.000000 L 99.278320 217.231934 L 101.238770 217.231934 L 101.238770 212.773926 L 99.697266 212.773926 Z M 101.238770 209.669434 L 102.227051 209.669434 L 102.227051 210.915527 L 101.238770 210.915527 Z " fill="rgb(0, 0, 0)" fill-opacity="1.000000" />
<path d="M 108.308594 212.677246 Q 107.556641 212.677246 107.169922 213.262695 Q 106.783203 213.848145 106.783203 214.997559 Q 106.783203 216.141602 107.169922 216.729736 Q 107.556641 217.317871 108.308594 217.317871 Q 109.065918 217.317871 109.452637 216.729736 Q 109.839355 216.141602 109.839355 214.997559 Q 109.839355 213.848145 109.452637 213.262695 Q 109.065918 212.677246 108.308594 212.677246 Z M 108.308594 211.839355 Q 109.560059 211.839355 110.223389 212.650391 Q 110.886719 213.461426 110.886719 214.997559 Q 110.886719 216.539062 110.226074 217.347412 Q 109.565430 218.155762 108.308594 218.155762 Q 107.057129 218.155762 106.396484 217.347412 Q 105.735840 216.539062 105.735840 214.997559 Q 105.735840 213.461426 106.396484 212.650391 Q 107.057129 211.839355 108.308594 211.839355 Z " fill="rgb(0, 0, 0)" fill-opacity="1.000000" />
<path d="M 117.645020 214.272461 L 117.645020 218.000000 L 116.651367 218.000000 L 116.651367 214.272461 Q 116.651367 213.461426 116.366699 213.080078 Q 116.082031 212.698730 115.475098 212.698730 Q 114.782227 212.698730 114.408936 213.190186 Q 114.035645 213.681641 114.035645 214.600098 L 114.035645 218.000000 L 113.047363 218.000000 L 113.047363 211.984375 L 114.035645 211.984375 L 114.035645 212.886719 Q 114.298828 212.371094 114.750000 212.105225 Q 115.201172 211.839355 115.818848 211.839355 Q 116.737305 211.839355 117.191162 212.443604 Q 117.645020 213.047852 117.645020 214.272461 Z " fill="rgb(0, 0, 0)" fill-opacity="1.000000" />
<path d="M 126.746582 209.980957 L 131.795410 209.980957 L 131.795410 210.442871 L 128.927246 218.000000 L 127.793945 218.000000 L 130.586914 210.894043 L 126.746582 210.894043 Z " fill="rgb(0, 0, 0)" fill-opacity="1.000000" />
<path d="M 132.892578 215.797852 L 132.892578 213.950195 L 139.729980 213.950195 L 139.729980 215.797852 Z " fill="rgb(0, 0, 0)" fill-opacity="1.000000" />
<path d="M 139.892578 215.797852 L 139.892578 213.950195 L 146.729980 213.950195 L 146.729980 215.797852 Z " fill="rgb(0, 0, 0)" fill-opacity="1.000000" />
<path d="M 146.892578 215.797852 L 146.892578 213.950195 L 153.729980 213.950195 L 153.729980 215.797852 Z " fill="rgb(0, 0, 0)" fill-opacity="1.000000" />
<path d="M 153.892578 215.797852 L 153.892578 213.950195 L 160.729980 213.950195 L 160.729980 215.797852 Z " fill="rgb(0, 0, 0)" fill-opacity="1.000000" />
<path d="M 160.892578 215.797852 L 160.892578 213.950195 L 167.729980 213.950195 L 167.729980 215.797852 Z " fill="rgb(0, 0, 0)" fill-opacity="1.000000" />
<path d="M 167.892578 215.797852 L 167.892578 213.950195 L 174.729980 213.950195 L 174.729980 215.797852 Z " fill="rgb(0, 0, 0)" fill-opacity="1.000000" />
<path d="M 174.892578 215.797852 L 174.892578 213.950195 L 181.729980 213.950195 L 181.729980 215.797852 Z " fill="rgb(0, 0, 0)" fill-opacity="1.000000" />
<path d="M 181.892578 215.797852 L 181.892578 213.950195 L 188.729980 213.950195 L 188.729980 215.797852 Z " fill="rgb(0, 0, 0)" fill-opacity="1.000000" />
<path d="M 191.449219 221.319336 L 191.449219 215.797852 L 188.892578 215.797852 L 188.892578 213.950195 L 193.167969 213.950195 L 193.167969 221.319336 Z " fill="rgb(0, 0, 0)" fill-opacity="1.000000" />
<path d="M 225.697266 212.005859 L 228.227051 212.005859 L 228.227051 217.231934 L 230.187500 217.231934 L 230.187500 218.000000 L 225.278320 218.000000 L 225.278320 217.231934 L 227.238770 217.231934 L 227.238770 212.773926 L 225.697266 212.773926 Z M 227.238770 209.669434 L 228.227051 209.669434 L 228.227051 210.915527 L 227.238770 210.915527 Z " fill="rgb(0, 0, 0)" fill-opacity="1.000000" />
<path d="M 234.297852 210.276367 L 234.297852 211.984375 L 236.542969 211.984375 L 236.542969 212.752441 L 234.297852 212.752441 L 234.297852 216.018066 Q 234.297852 216.684082 234.550293 216.947266 Q 234.802734 217.210449 235.431152 217.210449 L 236.542969 217.210449 L 236.542969 218.000000 L 235.334473 218.000000 Q 234.222656 218.000000 233.766113 217.554199 Q 233.309570 217.108398 233.309570 216.018066 L 233.309570 212.752441 L 231.703613 212.752441 L 231.703613 211.984375 L 233.309570 211.984375 L 233.309570 210.276367 Z " fill="rgb(0, 0, 0)" fill-opacity="1.000000" />
<path d="M 244.015625 214.498047 L 244.015625 214.981445 L 239.734863 214.981445 L 239.734863 215.013672 Q 239.691895 216.243652 240.204834 216.780762 Q 240.717773 217.317871 241.652344 217.317871 Q 242.125000 217.317871 242.640625 217.167480 Q 243.156250 217.017090 243.741699 216.710938 L 243.741699 217.693848 Q 243.177734 217.924805 242.654053 218.040283 Q 242.130371 218.155762 241.641602 218.155762 Q 240.239746 218.155762 239.450195 217.315186 Q 238.660645 216.474609 238.660645 214.997559 Q 238.660645 213.558105 239.434082 212.698730 Q 240.207520 211.839355 241.496582 211.839355 Q 242.645996 211.839355 243.309326 212.618164 Q 243.972656 213.396973 244.015625 214.498047 Z M 243.027344 214.208008 Q 242.962891 213.584961 242.573486 213.131104 Q 242.184082 212.677246 241.453613 212.677246 Q 240.739258 212.677246 240.277344 213.149902 Q 239.815430 213.622559 239.772461 214.213379 Z " fill="rgb(0, 0, 0)" fill-opacity="1.000000" />
<path d="M 248.630859 212.596680 Q 248.813477 212.209961 249.095459 212.024658 Q 249.377441 211.839355 249.774902 211.839355 Q 250.500000 211.839355 250.798096 212.400635 Q 251.096191 212.961914 251.096191 214.514160 L 251.096191 218.000000 L 250.193848 218.000000 L 250.193848 214.557129 Q 250.193848 213.284180 250.051514 212.975342 Q 249.909180 212.666504 249.533203 212.666504 Q 249.103516 212.666504 248.945068 212.996826 Q 248.786621 213.327148 248.786621 214.557129 L 248.786621 218.000000 L 247.884277 218.000000 L 247.884277 214.557129 Q 247.884277 213.268066 247.731201 212.967285 Q 247.578125 212.666504 247.180664 212.666504 Q 246.788574 212.666504 246.635498 212.996826 Q 246.482422 213.327148 246.482422 214.557129 L 246.482422 218.000000 L 245.585449 218.000000 L 245.585449 211.984375 L 246.482422 211.984375 L 246.482422 212.500000 Q 246.659668 212.177734 246.925537 212.008545 Q 247.191406 211.839355 247.529785 211.839355 Q 247.937988 211.839355 248.209229 212.027344 Q 248.480469 212.215332 248.630859 212.596680 Z " fill="rgb(0, 0, 0)" fill-opacity="1.000000" />
<path d="M 262.630859 212.596680 Q 262.813477 212.209961 263.095459 212.024658 Q 263.377441 211.839355 263.774902 211.839355 Q 264.500000 211.839355 264.798096 212.400635 Q 265.096191 212.961914 265.096191 214.514160 L 265.096191 218.000000 L 264.193848 218.000000 L 264.193848 214.557129 Q 264.193848 213.284180 264.051514 212.975342 Q 263.909180 212.666504 263.533203 212.666504 Q 263.103516 212.666504 262.945068 212.996826 Q 262.786621 213.327148 262.786621 214.557129 L 262.786621 218.000000 L 261.884277 218.000000 L 261.884277 214.557129 Q 261.884277 213.268066 261.731201 212.967285 Q 261.578125 212.666504 261.180664 212.666504 Q 260.788574 212.666504 260.635498 212.996826 Q 260.482422 213.327148 260.482422 214.557129 L 260.482422 218.000000 L 259.585449 218.000000 L 259.585449 211.984375 L 260.482422 211.984375 L 260.482422 212.500000 Q 260.659668 212.177734 260.925537 212.008545 Q 261.191406 211.839355 261.529785 211.839355 Q 261.937988 211.839355 262.209229 212.027344 Q 262.480469 212.215332 262.630859 212.596680 Z " fill="rgb(0, 0, 0)" fill-opacity="1.000000" />
<path d="M 269.308594 212.677246 Q 268.556641 212.677246 268.169922 213.262695 Q 267.783203 213.848145 267.783203 214.997559 Q 267.783203 216.141602 268.169922 216.729736 Q 268.556641 217.317871 269.308594 217.317871 Q 270.065918 217.317871 270.452637 216.729736 Q 270.839355 216.141602 270.839355 214.997559 Q 270.839355 213.848145 270.452637 213.262695 Q 270.065918 212.677246 269.308594 212.677246 Z M 269.308594 211.839355 Q 270.560059 211.839355 271.223389 212.650391 Q 271.886719 213.461426 271.886719 214.997559 Q 271.886719 216.539062 271.226074 217.347412 Q 270.565430 218.155762 269.308594 218.155762 Q 268.057129 218.155762 267.396484 217.347412 Q 266.735840 216.539062 266.735840 214.997559 Q 266.735840 213.461426 267.396484 212.650391 Q 268.057129 211.839355 269.308594 211.839355 Z " fill="rgb(0, 0, 0)" fill-opacity="1.000000" />
<path d="M 277.608398 212.752441 L 277.608398 209.642578 L 278.596680 209.642578 L 278.596680 218.000000 L 277.608398 218.000000 L 277.608398 217.242676 Q 277.361328 217.688477 276.950439 217.922119 Q 276.539551 218.155762 276.002441 218.155762 Q 274.912109 218.155762 274.286377 217.309814 Q 273.660645 216.463867 273.660645 214.976074 Q 273.660645 213.509766 274.289062 212.674561 Q 274.917480 211.839355 276.002441 211.839355 Q 276.544922 211.839355 276.958496 212.072998 Q 277.372070 212.306641 277.608398 212.752441 Z M 274.702637 214.997559 Q 274.702637 216.146973 275.067871 216.732422 Q 275.433105 217.317871 276.147461 217.317871 Q 276.861816 217.317871 277.235107 216.727051 Q 277.608398 216.136230 277.608398 214.997559 Q 277.608398 213.853516 277.235107 213.265381 Q 276.861816 212.677246 276.147461 212.677246 Q 275.433105 212.677246 275.067871 213.262695 Q 274.702637 213.848145 274.702637 214.997559 Z " fill="rgb(0, 0, 0)" fill-opacity="1.000000" />
<path d="M 281.697266 212.005859 L 284.227051 212.005859 L 284.227051 217.231934 L 286.187500 217.231934 L 286.187500 218.000000 L 281.278320 218.000000 L 281.278320 217.231934 L 283.238770 217.231934 L 283.238770 212.773926 L 281.697266 212.773926 Z M 283.238770 209.669434 L 284.227051 209.669434 L 284.227051 210.915527 L 283.238770 210.915527 Z " fill="rgb(0, 0, 0)" fill-opacity="1.000000" />
<path d="M 292.709473 209.642578 L 292.709473 210.464355 L 291.586914 210.464355 Q 291.055176 210.464355 290.848389 210.681885 Q 290.641602 210.899414 290.641602 211.452637 L 290.641602 211.984375 L 292.709473 211.984375 L 292.709473 212.752441 L 290.641602 212.752441 L 290.641602 218.000000 L 289.653320 218.000000 L 289.653320 212.752441 L 288.047363 212.752441 L 288.047363 211.984375 L 289.653320 211.984375 L 289.653320 211.565430 Q 289.653320 210.577148 290.107178 210.109863 Q 290.561035 209.642578 291.522461 209.642578 Z " fill="rgb(0, 0, 0)" fill-opacity="1.000000" />
<path d="M 295.697266 212.005859 L 298.227051 212.005859 L 298.227051 217.231934 L 300.187500 217.231934 L 300.187500 218.000000 L 295.278320 218.000000 L 295.278320 217.231934 L 297.238770 217.231934 L 297.238770 212.773926 L 295.697266 212.773926 Z M 297.238770 209.669434 L 298.227051 209.669434 L 298.227051 210.915527 L 297.238770 210.915527 Z " fill="rgb(0, 0, 0)" fill-opacity="1.000000" />
<path d="M 307.015625 214.498047 L 307.015625 214.981445 L 302.734863 214.981445 L 302.734863 215.013672 Q 302.691895 216.243652 303.204834 216.780762 Q 303.717773 217.317871 304.652344 217.317871 Q 305.125000 217.317871 305.640625 217.167480 Q 306.156250 217.017090 306.741699 216.710938 L 306.741699 217.693848 Q 306.177734 217.924805 305.654053 218.040283 Q 305.130371 218.155762 304.641602 218.155762 Q 303.239746 218.155762 302.450195 217.315186 Q 301.660645 216.474609 301.660645 214.997559 Q 301.660645 213.558105 302.434082 212.698730 Q 303.207520 211.839355 304.496582 211.839355 Q 305.645996 211.839355 306.309326 212.618164 Q 306.972656 213.396973 307.015625 214.498047 Z M 306.027344 214.208008 Q 305.962891 213.584961 305.573486 213.131104 Q 305.184082 212.677246 304.453613 212.677246 Q 303.739258 212.677246 303.277344 213.149902 Q 302.815430 213.622559 302.772461 214.213379 Z " fill="rgb(0, 0, 0)" fill-opacity="1.000000" />
<path d="M 314.203613 213.225098 Q 313.886719 212.978027 313.559082 212.865234 Q 313.231445 212.752441 312.839355 212.752441 Q 311.915527 212.752441 311.426758 213.332520 Q 310.937988 213.912598 310.937988 215.008301 L 310.937988 218.000000 L 309.944336 218.000000 L 309.944336 211.984375 L 310.937988 211.984375 L 310.937988 213.160645 Q 311.185059 212.521484 311.697998 212.180420 Q 312.210938 211.839355 312.914551 211.839355 Q 313.279785 211.839355 313.596680 211.930664 Q 313.913574 212.021973 314.203613 212.215332 Z " fill="rgb(0, 0, 0)" fill-opacity="1.000000" />
<path d="M 226.878906 182.319336 L 226.878906 168.300781 L 227.738281 168.300781 L 227.738281 182.319336 Z " fill="rgb(0, 0, 0)" fill-opacity="1.000000" />
<path d="M 226.878906 195.319336 L 226.878906 181.300781 L 227.738281 181.300781 L 227.738281 195.319336 Z " fill="rgb(0, 0, 0)" fill-opacity="1.000000" />
<path d="M 226.878906 208.319336 L 226.878906 194.300781 L 227.738281 194.300781 L 227.738281 208.319336 Z " fill="rgb(0, 0, 0)" fill-opacity="1.000000" />
<path d="M 6.892578 163.797852 L 6.892578 161.950195 L 13.729980 161.950195 L 13.729980 163.797852 Z " fill="rgb(0, 0, 0)" fill-opacity="1.000000" />
<path d="M 13.892578 163.797852 L 13.892578 161.950195 L 20.729980 161.950195 L 20.729980 163.797852 Z " fill="rgb(0, 0, 0)" fill-opacity="1.000000" />
<path d="M 20.892578 163.797852 L 20.892578 161.950195 L 27.729980 161.950195 L 27.729980 163.797852 Z " fill="rgb(0, 0, 0)" fill-opacity="1.000000" />
<path d="M 27.892578 163.797852 L 27.892578 161.950195 L 34.729980 161.950195 L 34.729980 163.797852 Z " fill="rgb(0, 0, 0)" fill-opacity="1.000000" />
<path d="M 34.892578 163.797852 L 34.892578 161.950195 L 41.729980 161.950195 L 41.729980 163.797852 Z " fill="rgb(0, 0, 0)" fill-opacity="1.000000" />
<path d="M 41.892578 163.797852 L 41.892578 161.950195 L 48.729980 161.950195 L 48.729980 163.797852 Z " fill="rgb(0, 0, 0)" fill-opacity="1.000000" />
<path d="M 48.892578 163.797852 L 48.892578 161.950195 L 55.729980 161.950195 L 55.729980 163.797852 Z " fill="rgb(0, 0, 0)" fill-opacity="1.000000" />
<path d="M 55.892578 163.797852 L 55.892578 161.950195 L 62.729980 161.950195 L 62.729980 163.797852 Z " fill="rgb(0, 0, 0)" fill-opacity="1.000000" />
<path d="M 62.892578 163.797852 L 62.892578 161.950195 L 69.729980 161.950195 L 69.729980 163.797852 Z " fill="rgb(0, 0, 0)" fill-opacity="1.000000" />
<path d="M 69.892578 163.797852 L 69.892578 161.950195 L 76.729980 161.950195 L 76.729980 163.797852 Z " fill="rgb(0, 0, 0)" fill-opacity="1.000000" />
<path d="M 76.892578 163.797852 L 76.892578 161.950195 L 83.729980 161.950195 L 83.729980 163.797852 Z " fill="rgb(0, 0, 0)" fill-opacity="1.000000" />
<path d="M 83.892578 163.797852 L 83.892578 161.950195 L 90.729980 161.950195 L 90.729980 163.797852 Z " fill="rgb(0, 0, 0)" fill-opacity="1.000000" />
<path d="M 90.892578 163.797852 L 90.892578 161.950195 L 97.729980 161.950195 L 97.729980 163.797852 Z " fill="rgb(0, 0, 0)" fill-opacity="1.000000" />
<path d="M 97.892578 163.797852 L 97.892578 161.950195 L 104.729980 161.950195 L 104.729980 163.797852 Z " fill="rgb(0, 0, 0)" fill-opacity="1.000000" />
<path d="M 104.892578 163.797852 L 104.892578 161.950195 L 111.729980 161.950195 L 111.729980 163.797852 Z " fill="rgb(0, 0, 0)" fill-opacity="1.000000" />
<path d="M 111.892578 163.797852 L 111.892578 161.950195 L 118.729980 161.950195 L 118.729980 163.797852 Z " fill="rgb(0, 0, 0)" fill-opacity="1.000000" />
<path d="M 118.892578 163.797852 L 118.892578 161.950195 L 125.729980 161.950195 L 125.729980 163.797852 Z " fill="rgb(0, 0, 0)" fill-opacity="1.000000" />
<path d="M 125.892578 163.797852 L 125.892578 161.950195 L 132.729980 161.950195 L 132.729980 163.797852 Z " fill="rgb(0, 0, 0)" fill-opacity="1.000000" />
<path d="M 132.892578 163.797852 L 132.892578 161.950195 L 139.729980 161.950195 L 139.729980 163.797852 Z " fill="rgb(0, 0, 0)" fill-opacity="1.000000" />
<path d="M 139.892578 163.797852 L 139.892578 161.950195 L 146.729980 161.950195 L 146.729980 163.797852 Z " fill="rgb(0, 0, 0)" fill-opacity="1.000000" />
<path d="M 146.892578 163.797852 L 146.892578 161.950195 L 153.729980 161.950195 L 153.729980 163.797852 Z " fill="rgb(0, 0, 0)" fill-opacity="1.000000" />
<path d="M 153.892578 163.797852 L 153.892578 161.950195 L 160.729980 161.950195 L 160.729980 163.797852 Z " fill="rgb(0, 0, 0)" fill-opacity="1.000000" />
<path d="M 160.892578 163.797852 L 160.892578 161.950195 L 167.729980 161.950195 L 167.729980 163.797852 Z " fill="rgb(0, 0, 0)" fill-opacity="1.000000" />
<path d="M 167.892578 163.797852 L 167.892578 161.950195 L 174.729980 161.950195 L 174.729980 163.797852 Z " fill="rgb(0, 0, 0)" fill-opacity="1.000000" />
<path d="M 174.892578 163.797852 L 174.892578 161.950195 L 181.729980 161.950195 L 181.729980 163.797852 Z " fill="rgb(0, 0, 0)" fill-opacity="1.000000" />
<path d="M 181.892578 163.797852 L 181.892578 161.950195 L 188.729980 161.950195 L 188.729980 163.797852 Z " fill="rgb(0, 0, 0)" fill-opacity="1.000000" />
<path d="M 188.892578 163.797852 L 188.892578 161.950195 L 191.449219 161.950195 L 191.449219 155.300781 L 193.167969 155.300781 L 193.167969 163.797852 Z " fill="rgb(0, 0, 0)" fill-opacity="1.000000" />
<path d="M 226.878906 169.319336 L 226.878906 155.300781 L 227.738281 155.300781 L 227.738281 169.319336 Z " fill="rgb(0, 0, 0)" fill-opacity="1.000000" />
<path d="M 30.878906 52.319336 L 30.878906 45.412109 L 34.729980 45.412109 L 34.729980 46.335938 L 31.738281 46.335938 L 31.738281 52.319336 Z " fill="rgb(0, 0, 0)" fill-opacity="1.000000" />
<path d="M 30.878906 65.319336 L 30.878906 51.300781 L 31.738281 51.300781 L 31.738281 65.319336 Z " fill="rgb(0, 0, 0)" fill-opacity="1.000000" />
<path d="M 30.878906 78.319336 L 30.878906 64.300781 L 31.738281 64.300781 L 31.738281 78.319336 Z " fill="rgb(0, 0, 0)" fill-opacity="1.000000" />
<path d="M 30.878906 91.319336 L 30.878906 77.300781 L 31.738281 77.300781 L 31.738281 91.319336 Z " fill="rgb(0, 0, 0)" fill-opacity="1.000000" />
<path d="M 30.878906 104.319336 L 30.878906 90.300781 L 31.738281 90.300781 L 31.738281 104.319336 Z " fill="rgb(0, 0, 0)" fill-opacity="1.000000" />
<path d="M 30.878906 117.319336 L 30.878906 103.300781 L 31.738281 103.300781 L 31.738281 117.319336 Z " fill="rgb(0, 0, 0)" fill-opacity="1.000000" />
<path d="M 30.878906 130.319336 L 30.878906 116.300781 L 31.738281 116.300781 L 31.738281 130.319336 Z " fill="rgb(0, 0, 0)" fill-opacity="1.000000" />
<path d="M 30.878906 137.335938 L 30.878906 129.300781 L 31.738281 129.300781 L 31.738281 136.412109 L 34.729980 136.412109 L 34.729980 137.335938 Z " fill="rgb(0, 0, 0)" fill-opacity="1.000000" />
<path d="M 191.449219 156.319336 L 191.449219 142.300781 L 193.167969 142.300781 L 193.167969 156.319336 Z " fill="rgb(0, 0, 0)" fill-opacity="1.000000" />
<path d="M 226.878906 156.319336 L 226.878906 142.300781 L 227.738281 142.300781 L 227.738281 156.319336 Z " fill="rgb(0, 0, 0)" fill-opacity="1.000000" />
<path d="M 34.892578 137.335938 L 34.892578 136.412109 L 41.729980 136.412109 L 41.729980 137.335938 Z " fill="rgb(0, 0, 0)" fill-opacity="1.000000" />
<path d="M 41.892578 137.335938 L 41.892578 136.412109 L 48.729980 136.412109 L 48.729980 137.335938 Z " fill="rgb(0, 0, 0)" fill-opacity="1.000000" />
<path d="M 48.892578 137.335938 L 48.892578 136.412109 L 55.729980 136.412109 L 55.729980 137.335938 Z " fill="rgb(0, 0, 0)" fill-opacity="1.000000" />
<path d="M 55.892578 137.335938 L 55.892578 136.412109 L 62.729980 136.412109 L 62.729980 137.335938 Z " fill="rgb(0, 0, 0)" fill-opacity="1.000000" />
<path d="M 62.892578 137.335938 L 62.892578 136.412109 L 69.729980 136.412109 L 69.729980 137.335938 Z " fill="rgb(0, 0, 0)" fill-opacity="1.000000" />
<path d="M 69.892578 137.335938 L 69.892578 136.412109 L 76.729980 136.412109 L 76.729980 137.335938 Z " fill="rgb(0, 0, 0)" fill-opacity="1.000000" />
<path d="M 76.892578 137.335938 L 76.892578 136.412109 L 83.729980 136.412109 L 83.729980 137.335938 Z " fill="rgb(0, 0, 0)" fill-opacity="1.000000" />
<path d="M 83.892578 137.335938 L 83.892578 136.412109 L 90.729980 136.412109 L 90.729980 137.335938 Z " fill="rgb(0, 0, 0)" fill-opacity="1.000000" />
<path d="M 90.892578 137.335938 L 90.892578 136.412109 L 97.729980 136.412109 L 97.729980 137.335938 Z " fill="rgb(0, 0, 0)" fill-opacity="1.000000" />
<path d="M 97.892578 137.335938 L 97.892578 136.412109 L 104.729980 136.412109 L 104.729980 137.335938 Z " fill="rgb(0, 0, 0)" fill-opacity="1.000000" />
<path d="M 104.892578 137.335938 L 104.892578 136.412109 L 111.729980 136.412109 L 111.729980 137.335938 Z " fill="rgb(0, 0, 0)" fill-opacity="1.000000" />
<path d="M 111.892578 137.335938 L 111.892578 136.412109 L 118.729980 136.412109 L 118.729980 137.335938 Z " fill="rgb(0, 0, 0)" fill-opacity="1.000000" />
<path d="M 118.892578 137.335938 L 118.892578 136.412109 L 125.729980 136.412109 L 125.729980 137.335938 Z " fill="rgb(0, 0, 0)" fill-opacity="1.000000" />
<path d="M 125.892578 137.335938 L 125.892578 136.412109 L 132.729980 136.412109 L 132.729980 137.335938 Z " fill="rgb(0, 0, 0)" fill-opacity="1.000000" />
<path d="M 132.892578 137.335938 L 132.892578 136.412109 L 139.729980 136.412109 L 139.729980 137.335938 Z " fill="rgb(0, 0, 0)" fill-opacity="1.000000" />
<path d="M 139.892578 137.335938 L 139.892578 136.412109 L 146.729980 136.412109 L 146.729980 137.335938 Z " fill="rgb(0, 0, 0)" fill-opacity="1.000000" />
<path d="M 146.892578 137.335938 L 146.892578 136.412109 L 153.729980 136.412109 L 153.729980 137.335938 Z " fill="rgb(0, 0, 0)" fill-opacity="1.000000" />
<path d="M 153.892578 137.335938 L 153.892578 136.412109 L 160.729980 136.412109 L 160.729980 137.335938 Z " fill="rgb(0, 0, 0)" fill-opacity="1.000000" />
<path d="M 160.892578 137.335938 L 160.892578 136.412109 L 163.878906 136.412109 L 163.878906 129.300781 L 164.738281 129.300781 L 164.738281 137.335938 Z " fill="rgb(0, 0, 0)" fill-opacity="1.000000" />
<path d="M 191.449219 143.319336 L 191.449219 129.300781 L 193.167969 129.300781 L 193.167969 143.319336 Z " fill="rgb(0, 0, 0)" fill-opacity="1.000000" />
<path d="M 226.878906 143.319336 L 226.878906 129.300781 L 227.738281 129.300781 L 227.738281 143.319336 Z " fill="rgb(0, 0, 0)" fill-opacity="1.000000" />
<path d="M 58.878906 91.319336 L 58.878906 84.412109 L 62.729980 84.412109 L 62.729980 85.335938 L 59.738281 85.335938 L 59.738281 91.319336 Z " fill="rgb(0, 0, 0)" fill-opacity="1.000000" />
<path d="M 58.878906 104.319336 L 58.878906 90.300781 L 59.738281 90.300781 L 59.738281 104.319336 Z " fill="rgb(0, 0, 0)" fill-opacity="1.000000" />
<path d="M 58.878906 111.335938 L 58.878906 103.300781 L 59.738281 103.300781 L 59.738281 110.412109 L 62.729980 110.412109 L 62.729980 111.335938 Z " fill="rgb(0, 0, 0)" fill-opacity="1.000000" />
<path d="M 163.878906 130.319336 L 163.878906 116.300781 L 164.738281 116.300781 L 164.738281 130.319336 Z " fill="rgb(0, 0, 0)" fill-opacity="1.000000" />
<path d="M 191.449219 130.319336 L 191.449219 116.300781 L 193.167969 116.300781 L 193.167969 130.319336 Z " fill="rgb(0, 0, 0)" fill-opacity="1.000000" />
<path d="M 226.878906 130.319336 L 226.878906 116.300781 L 227.738281 116.300781 L 227.738281 130.319336 Z " fill="rgb(0, 0, 0)" fill-opacity="1.000000" />
<path d="M 62.892578 111.335938 L 62.892578 110.412109 L 69.729980 110.412109 L 69.729980 111.335938 Z " fill="rgb(0, 0, 0)" fill-opacity="1.000000" />
<path d="M 69.892578 111.335938 L 69.892578 110.412109 L 76.729980 110.412109 L 76.729980 111.335938 Z " fill="rgb(0, 0, 0)" fill-opacity="1.000000" />
<path d="M 76.892578 111.335938 L 76.892578 110.412109 L 83.729980 110.412109 L 83.729980 111.335938 Z " fill="rgb(0, 0, 0)" fill-opacity="1.000000" />
<path d="M 83.892578 111.335938 L 83.892578 110.412109 L 90.729980 110.412109 L 90.729980 111.335938 Z " fill="rgb(0, 0, 0)" fill-opacity="1.000000" />
<path d="M 90.892578 111.335938 L 90.892578 110.412109 L 97.729980 110.412109 L 97.729980 111.335938 Z " fill="rgb(0, 0, 0)" fill-opacity="1.000000" />
<path d="M 97.892578 111.335938 L 97.892578 110.412109 L 104.729980 110.412109 L 104.729980 111.335938 Z " fill="rgb(0, 0, 0)" fill-opacity="1.000000" />
<path d="M 104.892578 111.335938 L 104.892578 110.412109 L 111.729980 110.412109 L 111.729980 111.335938 Z " fill="rgb(0, 0, 0)" fill-opacity="1.000000" />
<path d="M 111.892578 111.335938 L 111.892578 110.412109 L 118.729980 110.412109 L 118.729980 111.335938 Z " fill="rgb(0, 0, 0)" fill-opacity="1.000000" />
<path d="M 118.892578 111.335938 L 118.892578 110.412109 L 125.729980 110.412109 L 125.729980 111.335938 Z " fill="rgb(0, 0, 0)" fill-opacity="1.000000" />
<path d="M 125.892578 111.335938 L 125.892578 110.412109 L 132.729980 110.412109 L 132.729980 111.335938 Z " fill="rgb(0, 0, 0)" fill-opacity="1.000000" />
<path d="M 132.892578 111.335938 L 132.892578 110.412109 L 135.878906 110.412109 L 135.878906 103.300781 L 136.738281 103.300781 L 136.738281 111.335938 Z " fill="rgb(0, 0, 0)" fill-opacity="1.000000" />
<path d="M 163.878906 117.319336 L 163.878906 103.300781 L 164.738281 103.300781 L 164.738281 117.319336 Z " fill="rgb(0, 0, 0)" fill-opacity="1.000000" />
<path d="M 191.449219 117.319336 L 191.449219 103.300781 L 193.167969 103.300781 L 193.167969 117.319336 Z " fill="rgb(0, 0, 0)" fill-opacity="1.000000" />
<path d="M 226.878906 117.319336 L 226.878906 103.300781 L 227.738281 103.300781 L 227.738281 117.319336 Z " fill="rgb(0, 0, 0)" fill-opacity="1.000000" />
<path d="M 62.892578 103.750000 L 62.892578 92.535156 L 69.729980 92.535156 L 69.729980 103.750000 Z " fill="rgb(0, 0, 0)" fill-opacity="1.000000" />
<path d="M 69.892578 103.750000 L 69.892578 92.535156 L 76.729980 92.535156 L 76.729980 103.750000 Z " fill="rgb(0, 0, 0)" fill-opacity="1.000000" />
<path d="M 76.892578 103.750000 L 76.892578 92.535156 L 83.729980 92.535156 L 83.729980 103.750000 Z " fill="rgb(0, 0, 0)" fill-opacity="1.000000" />
<path d="M 83.892578 103.750000 L 83.892578 92.535156 L 90.729980 92.535156 L 90.729980 103.750000 Z " fill="rgb(0, 0, 0)" fill-opacity="1.000000" />
<path d="M 90.892578 103.750000 L 90.892578 92.535156 L 97.729980 92.535156 L 97.729980 103.750000 Z " fill="rgb(0, 0, 0)" fill-opacity="1.000000" />
<path d="M 97.892578 103.750000 L 97.892578 92.535156 L 104.729980 92.535156 L 104.729980 103.750000 Z " fill="rgb(0, 0, 0)" fill-opacity="1.000000" />
<path d="M 104.892578 103.750000 L 104.892578 92.535156 L 111.729980 92.535156 L 111.729980 103.750000 Z " fill="rgb(0, 0, 0)" fill-opacity="1.000000" />
<path d="M 111.892578 103.750000 L 111.892578 92.535156 L 118.729980 92.535156 L 118.729980 103.750000 Z " fill="rgb(0, 0, 0)" fill-opacity="1.000000" />
<path d="M 118.892578 103.750000 L 118.892578 92.535156 L 125.729980 92.535156 L 125.729980 103.750000 Z " fill="rgb(0, 0, 0)" fill-opacity="1.000000" />
<path d="M 125.892578 103.750000 L 125.892578 92.535156 L 132.729980 92.535156 L 132.729980 103.750000 Z " fill="rgb(0, 0, 0)" fill-opacity="1.000000" />
<path d="M 135.878906 104.319336 L 135.878906 90.300781 L 136.738281 90.300781 L 136.738281 104.319336 Z " fill="rgb(0, 0, 0)" fill-opacity="1.000000" />
<path d="M 139.892578 98.335938 L 139.892578 97.412109 L 146.729980 97.412109 L 146.729980 98.335938 Z " fill="rgb(0, 0, 0)" fill-opacity="1.000000" />
<path d="M 146.892578 98.335938 L 146.892578 97.412109 L 153.729980 97.412109 L 153.729980 98.335938 Z " fill="rgb(0, 0, 0)" fill-opacity="1.000000" />
<path d="M 153.892578 98.335938 L 153.892578 97.412109 L 160.729980 97.412109 L 160.729980 98.335938 Z " fill="rgb(0, 0, 0)" fill-opacity="1.000000" />
<path d="M 164.738281 98.335938 L 164.738281 104.319336 L 163.878906 104.319336 L 163.878906 98.335938 L 160.892578 98.335938 L 160.892578 97.412109 L 163.878906 97.412109 L 163.878906 90.300781 L 164.738281 90.300781 L 164.738281 97.412109 L 167.729980 97.412109 L 167.729980 98.335938 Z " fill="rgb(0, 0, 0)" fill-opacity="1.000000" />
<path d="M 167.892578 98.335938 L 167.892578 97.412109 L 174.729980 97.412109 L 174.729980 98.335938 Z " fill="rgb(0, 0, 0)" fill-opacity="1.000000" />
<path d="M 174.892578 98.335938 L 174.892578 97.412109 L 181.729980 97.412109 L 181.729980 98.335938 Z " fill="rgb(0, 0, 0)" fill-opacity="1.000000" />
<path d="M 181.892578 98.335938 L 181.892578 97.412109 L 188.729980 97.412109 L 188.729980 98.335938 Z " fill="rgb(0, 0, 0)" fill-opacity="1.000000" />
<path d="M 191.449219 104.319336 L 191.449219 98.797852 L 188.892578 98.797852 L 188.892578 96.950195 L 191.449219 96.950195 L 191.449219 90.300781 L 193.167969 90.300781 L 193.167969 96.950195 L 195.729980 96.950195 L 195.729980 98.797852 L 193.167969 98.797852 L 193.167969 104.319336 Z " fill="rgb(0, 0, 0)" fill-opacity="1.000000" />
<path d="M 195.892578 98.335938 L 195.892578 97.412109 L 202.729980 97.412109 L 202.729980 98.335938 Z " fill="rgb(0, 0, 0)" fill-opacity="1.000000" />
<path d="M 202.892578 98.335938 L 202.892578 97.412109 L 209.729980 97.412109 L 209.729980 98.335938 Z " fill="rgb(0, 0, 0)" fill-opacity="1.000000" />
<path d="M 209.892578 98.335938 L 209.892578 97.412109 L 216.729980 97.412109 L 216.729980 98.335938 Z " fill="rgb(0, 0, 0)" fill-opacity="1.000000" />
<path d="M 216.892578 98.335938 L 216.892578 97.412109 L 223.729980 97.412109 L 223.729980 98.335938 Z " fill="rgb(0, 0, 0)" fill-opacity="1.000000" />
<path d="M 226.878906 104.319336 L 226.878906 98.335938 L 223.892578 98.335938 L 223.892578 97.412109 L 227.738281 97.412109 L 227.738281 104.319336 Z " fill="rgb(0, 0, 0)" fill-opacity="1.000000" />
<path d="M 62.892578 85.335938 L 62.892578 84.412109 L 69.729980 84.412109 L 69.729980 85.335938 Z " fill="rgb(0, 0, 0)" fill-opacity="1.000000" />
<path d="M 69.892578 85.335938 L 69.892578 84.412109 L 76.729980 84.412109 L 76.729980 85.335938 Z " fill="rgb(0, 0, 0)" fill-opacity="1.000000" />
<path d="M 80.308594 80.937012 L 79.164551 85.040527 L 81.452637 85.040527 Z M 79.653320 79.980957 L 80.969238 79.980957 L 83.423828 88.000000 L 82.301270 88.000000 L 81.710449 85.910645 L 78.901367 85.910645 L 78.321289 88.000000 L 77.198730 88.000000 Z " fill="rgb(0, 0, 0)" fill-opacity="1.000000" />
<path d="M 87.297852 80.276367 L 87.297852 81.984375 L 89.542969 81.984375 L 89.542969 82.752441 L 87.297852 82.752441 L 87.297852 86.018066 Q 87.297852 86.684082 87.550293 86.947266 Q 87.802734 87.210449 88.431152 87.210449 L 89.542969 87.210449 L 89.542969 88.000000 L 88.334473 88.000000 Q 87.222656 88.000000 86.766113 87.554199 Q 86.309570 87.108398 86.309570 86.018066 L 86.309570 82.752441 L 84.703613 82.752441 L 84.703613 81.984375 L 86.309570 81.984375 L 86.309570 80.276367 Z " fill="rgb(0, 0, 0)" fill-opacity="1.000000" />
<path d="M 94.297852 80.276367 L 94.297852 81.984375 L 96.542969 81.984375 L 96.542969 82.752441 L 94.297852 82.752441 L 94.297852 86.018066 Q 94.297852 86.684082 94.550293 86.947266 Q 94.802734 87.210449 95.431152 87.210449 L 96.542969 87.210449 L 96.542969 88.000000 L 95.334473 88.000000 Q 94.222656 88.000000 93.766113 87.554199 Q 93.309570 87.108398 93.309570 86.018066 L 93.309570 82.752441 L 91.703613 82.752441 L 91.703613 81.984375 L 93.309570 81.984375 L 93.309570 80.276367 Z " fill="rgb(0, 0, 0)" fill-opacity="1.000000" />
<path d="M 104.203613 83.225098 Q 103.886719 82.978027 103.559082 82.865234 Q 103.231445 82.752441 102.839355 82.752441 Q 101.915527 82.752441 101.426758 83.332520 Q 100.937988 83.912598 100.937988 85.008301 L 100.937988 88.000000 L 99.944336 88.000000 L 99.944336 81.984375 L 100.937988 81.984375 L 100.937988 83.160645 Q 101.185059 82.521484 101.697998 82.180420 Q 102.210938 81.839355 102.914551 81.839355 Q 103.279785 81.839355 103.596680 81.930664 Q 103.913574 82.021973 104.203613 82.215332 Z " fill="rgb(0, 0, 0)" fill-opacity="1.000000" />
<path d="M 113.450195 87.092285 L 115.136719 87.092285 L 115.136719 81.033691 L 113.117188 82.005859 L 113.117188 80.963867 L 115.125977 80.007812 L 116.210938 80.007812 L 116.210938 87.092285 L 117.875977 87.092285 L 117.875977 88.000000 L 113.450195 88.000000 Z " fill="rgb(0, 0, 0)" fill-opacity="1.000000" />
<path d="M 118.892578 85.335938 L 118.892578 84.412109 L 125.729980 84.412109 L 125.729980 85.335938 Z " fill="rgb(0, 0, 0)" fill-opacity="1.000000" />
<path d="M 125.892578 85.335938 L 125.892578 84.412109 L 132.729980 84.412109 L 132.729980 85.335938 Z " fill="rgb(0, 0, 0)" fill-opacity="1.000000" />
<path d="M 135.878906 91.319336 L 135.878906 85.335938 L 132.892578 85.335938 L 132.892578 84.412109 L 136.738281 84.412109 L 136.738281 91.319336 Z " fill="rgb(0, 0, 0)" fill-opacity="1.000000" />
<path d="M 163.878906 91.319336 L 163.878906 77.300781 L 164.738281 77.300781 L 164.738281 91.319336 Z " fill="rgb(0, 0, 0)" fill-opacity="1.000000" />
<path d="M 191.449219 91.319336 L 191.449219 77.300781 L 193.167969 77.300781 L 193.167969 91.319336 Z " fill="rgb(0, 0, 0)" fill-opacity="1.000000" />
<path d="M 71.079590 53.980957 L 75.532227 53.980957 L 75.532227 54.894043 L 73.851074 54.894043 L 73.851074 61.086914 L 75.532227 61.086914 L 75.532227 62.000000 L 71.079590 62.000000 L 71.079590 61.086914 L 72.760742 61.086914 L 72.760742 54.894043 L 71.079590 54.894043 Z " fill="rgb(0, 0, 0)" fill-opacity="1.000000" />
<path d="M 163.878906 78.319336 L 163.878906 64.300781 L 164.738281 64.300781 L 164.738281 78.319336 Z " fill="rgb(0, 0, 0)" fill-opacity="1.000000" />
<path d="M 191.449219 78.319336 L 191.449219 64.300781 L 193.167969 64.300781 L 193.167969 78.319336 Z " fill="rgb(0, 0, 0)" fill-opacity="1.000000" />
<path d="M 80.297852 54.276367 L 80.297852 55.984375 L 82.542969 55.984375 L 82.542969 56.752441 L 80.297852 56.752441 L 80.297852 60.018066 Q 80.297852 60.684082 80.550293 60.947266 Q 80.802734 61.210449 81.431152 61.210449 L 82.542969 61.210449 L 82.542969 62.000000 L 81.334473 62.000000 Q 80.222656 62.000000 79.766113 61.554199 Q 79.309570 61.108398 79.309570 60.018066 L 79.309570 56.752441 L 77.703613 56.752441 L 77.703613 55.984375 L 79.309570 55.984375 L 79.309570 54.276367 Z " fill="rgb(0, 0, 0)" fill-opacity="1.000000" />
<path d="M 90.015625 58.498047 L 90.015625 58.981445 L 85.734863 58.981445 L 85.734863 59.013672 Q 85.691895 60.243652 86.204834 60.780762 Q 86.717773 61.317871 87.652344 61.317871 Q 88.125000 61.317871 88.640625 61.167480 Q 89.156250 61.017090 89.741699 60.710938 L 89.741699 61.693848 Q 89.177734 61.924805 88.654053 62.040283 Q 88.130371 62.155762 87.641602 62.155762 Q 86.239746 62.155762 85.450195 61.315186 Q 84.660645 60.474609 84.660645 58.997559 Q 84.660645 57.558105 85.434082 56.698730 Q 86.207520 55.839355 87.496582 55.839355 Q 88.645996 55.839355 89.309326 56.618164 Q 89.972656 57.396973 90.015625 58.498047 Z M 89.027344 58.208008 Q 88.962891 57.584961 88.573486 57.131104 Q 88.184082 56.677246 87.453613 56.677246 Q 86.739258 56.677246 86.277344 57.149902 Q 85.815430 57.622559 85.772461 58.213379 Z " fill="rgb(0, 0, 0)" fill-opacity="1.000000" />
<path d="M 94.630859 56.596680 Q 94.813477 56.209961 95.095459 56.024658 Q 95.377441 55.839355 95.774902 55.839355 Q 96.500000 55.839355 96.798096 56.400635 Q 97.096191 56.961914 97.096191 58.514160 L 97.096191 62.000000 L 96.193848 62.000000 L 96.193848 58.557129 Q 96.193848 57.284180 96.051514 56.975342 Q 95.909180 56.666504 95.533203 56.666504 Q 95.103516 56.666504 94.945068 56.996826 Q 94.786621 57.327148 94.786621 58.557129 L 94.786621 62.000000 L 93.884277 62.000000 L 93.884277 58.557129 Q 93.884277 57.268066 93.731201 56.967285 Q 93.578125 56.666504 93.180664 56.666504 Q 92.788574 56.666504 92.635498 56.996826 Q 92.482422 57.327148 92.482422 58.557129 L 92.482422 62.000000 L 91.585449 62.000000 L 91.585449 55.984375 L 92.482422 55.984375 L 92.482422 56.500000 Q 92.659668 56.177734 92.925537 56.008545 Q 93.191406 55.839355 93.529785 55.839355 Q 93.937988 55.839355 94.209229 56.027344 Q 94.480469 56.215332 94.630859 56.596680 Z " fill="rgb(0, 0, 0)" fill-opacity="1.000000" />
<path d="M 108.201172 58.444336 Q 108.894043 58.444336 109.288818 57.944824 Q 109.683594 57.445312 109.683594 56.564453 Q 109.683594 55.683594 109.288818 55.184082 Q 108.894043 54.684570 108.201172 54.684570 Q 107.481445 54.684570 107.116211 55.159912 Q 106.750977 55.635254 106.750977 56.564453 Q 106.750977 57.499023 107.113525 57.971680 Q 107.476074 58.444336 108.201172 58.444336 Z M 106.267578 61.833496 L 106.267578 60.834473 Q 106.605957 61.033203 106.987305 61.137939 Q 107.368652 61.242676 107.782227 61.242676 Q 108.813477 61.242676 109.342529 60.466553 Q 109.871582 59.690430 109.871582 58.181152 Q 109.619141 58.718262 109.162598 59.005615 Q 108.706055 59.292969 108.115234 59.292969 Q 106.955078 59.292969 106.318604 58.578613 Q 105.682129 57.864258 105.682129 56.553711 Q 105.682129 55.259277 106.334717 54.547607 Q 106.987305 53.835938 108.179688 53.835938 Q 109.576172 53.835938 110.226074 54.840332 Q 110.875977 55.844727 110.875977 57.998535 Q 110.875977 60.023438 110.094482 61.089600 Q 109.312988 62.155762 107.825195 62.155762 Q 107.433105 62.155762 107.035645 62.072510 Q 106.638184 61.989258 106.267578 61.833496 Z " fill="rgb(0, 0, 0)" fill-opacity="1.000000" />
<path d="M 114.003418 61.086914 L 117.687988 61.086914 L 117.687988 62.000000 L 112.816406 62.000000 L 112.816406 61.086914 Q 113.820801 60.028809 114.572754 59.217773 Q 115.324707 58.406738 115.609375 58.073730 Q 116.146484 57.418457 116.334473 57.012939 Q 116.522461 56.607422 116.522461 56.183105 Q 116.522461 55.511719 116.127686 55.130371 Q 115.732910 54.749023 115.045410 54.749023 Q 114.556641 54.749023 114.019531 54.926270 Q 113.482422 55.103516 112.880859 55.463379 L 112.880859 54.367676 Q 113.434082 54.104492 113.968506 53.970215 Q 114.502930 53.835938 115.023926 53.835938 Q 116.200195 53.835938 116.917236 54.461670 Q 117.634277 55.087402 117.634277 56.102539 Q 117.634277 56.618164 117.395264 57.133789 Q 117.156250 57.649414 116.619141 58.272461 Q 116.318359 58.621582 115.746338 59.239258 Q 115.174316 59.856934 114.003418 61.086914 Z " fill="rgb(0, 0, 0)" fill-opacity="1.000000" />
<path d="M 163.878906 65.319336 L 163.878906 51.300781 L 164.738281 51.300781 L 164.738281 65.319336 Z " fill="rgb(0, 0, 0)" fill-opacity="1.000000" />
<path d="M 191.449219 65.319336 L 191.449219 51.300781 L 193.167969 51.300781 L 193.167969 65.319336 Z " fill="rgb(0, 0, 0)" fill-opacity="1.000000" />
<path d="M 34.892578 46.335938 L 34.892578 45.412109 L 41.729980 45.412109 L 41.729980 46.335938 Z " fill="rgb(0, 0, 0)" fill-opacity="1.000000" />
<path d="M 41.892578 46.335938 L 41.892578 45.412109 L 48.729980 45.412109 L 48.729980 46.335938 Z " fill="rgb(0, 0, 0)" fill-opacity="1.000000" />
<path d="M 48.892578 46.335938 L 48.892578 45.412109 L 55.729980 45.412109 L 55.729980 46.335938 Z " fill="rgb(0, 0, 0)" fill-opacity="1.000000" />
<path d="M 55.892578 46.335938 L 55.892578 45.412109 L 62.729980 45.412109 L 62.729980 46.335938 Z " fill="rgb(0, 0, 0)" fill-opacity="1.000000" />
<path d="M 62.892578 46.335938 L 62.892578 45.412109 L 69.729980 45.412109 L 69.729980 46.335938 Z " fill="rgb(0, 0, 0)" fill-opacity="1.000000" />
<path d="M 69.892578 46.335938 L 69.892578 45.412109 L 76.729980 45.412109 L 76.729980 46.335938 Z " fill="rgb(0, 0, 0)" fill-opacity="1.000000" />
<path d="M 76.892578 46.335938 L 76.892578 45.412109 L 83.729980 45.412109 L 83.729980 46.335938 Z " fill="rgb(0, 0, 0)" fill-opacity="1.000000" />
<path d="M 83.892578 46.335938 L 83.892578 45.412109 L 90.729980 45.412109 L 90.729980 46.335938 Z " fill="rgb(0, 0, 0)" fill-opacity="1.000000" />
<path d="M 90.892578 46.335938 L 90.892578 45.412109 L 97.729980 45.412109 L 97.729980 46.335938 Z " fill="rgb(0, 0, 0)" fill-opacity="1.000000" />
<path d="M 97.892578 46.335938 L 97.892578 45.412109 L 104.729980 45.412109 L 104.729980 46.335938 Z " fill="rgb(0, 0, 0)" fill-opacity="1.000000" />
<path d="M 104.892578 46.335938 L 104.892578 45.412109 L 111.729980 45.412109 L 111.729980 46.335938 Z " fill="rgb(0, 0, 0)" fill-opacity="1.000000" />
<path d="M 111.892578 46.335938 L 111.892578 45.412109 L 118.729980 45.412109 L 118.729980 46.335938 Z " fill="rgb(0, 0, 0)" fill-opacity="1.000000" />
<path d="M 118.892578 46.335938 L 118.892578 45.412109 L 125.729980 45.412109 L 125.729980 46.335938 Z " fill="rgb(0, 0, 0)" fill-opacity="1.000000" />
<path d="M 125.892578 46.335938 L 125.892578 45.412109 L 132.729980 45.412109 L 132.729980 46.335938 Z " fill="rgb(0, 0, 0)" fill-opacity="1.000000" />
<path d="M 132.892578 46.335938 L 132.892578 45.412109 L 139.729980 45.412109 L 139.729980 46.335938 Z " fill="rgb(0, 0, 0)" fill-opacity="1.000000" />
<path d="M 139.892578 46.335938 L 139.892578 45.412109 L 146.729980 45.412109 L 146.729980 46.335938 Z " fill="rgb(0, 0, 0)" fill-opacity="1.000000" />
<path d="M 146.892578 46.335938 L 146.892578 45.412109 L 153.729980 45.412109 L 153.729980 46.335938 Z " fill="rgb(0, 0, 0)" fill-opacity="1.000000" />
<path d="M 153.892578 46.335938 L 153.892578 45.412109 L 160.729980 45.412109 L 160.729980 46.335938 Z " fill="rgb(0, 0, 0)" fill-opacity="1.000000" />
<path d="M 163.878906 52.319336 L 163.878906 46.335938 L 160.892578 46.335938 L 160.892578 45.412109 L 164.738281 45.412109 L 164.738281 52.319336 Z " fill="rgb(0, 0, 0)" fill-opacity="1.000000" />
<path d="M 191.449219 52.319336 L 191.449219 38.300781 L 193.167969 38.300781 L 193.167969 52.319336 Z " fill="rgb(0, 0, 0)" fill-opacity="1.000000" />
<path d="M 191.449219 26.319336 L 191.449219 12.300781 L 193.167969 12.300781 L 193.167969 26.319336 Z " fill="rgb(0, 0, 0)" fill-opacity="1.000000" />
<path d="M 191.449219 39.319336 L 191.449219 25.300781 L 193.167969 25.300781 L 193.167969 39.319336 Z " fill="rgb(0, 0, 0)" fill-opacity="1.000000" />
<path d="M 6.892578 7.797852 L 6.892578 5.950195 L 13.729980 5.950195 L 13.729980 7.797852 Z " fill="rgb(0, 0, 0)" fill-opacity="1.000000" />
<path d="M 13.892578 7.797852 L 13.892578 5.950195 L 20.729980 5.950195 L 20.729980 7.797852 Z " fill="rgb(0, 0, 0)" fill-opacity="1.000000" />
<path d="M 20.892578 7.797852 L 20.892578 5.950195 L 27.729980 5.950195 L 27.729980 7.797852 Z " fill="rgb(0, 0, 0)" fill-opacity="1.000000" />
<path d="M 27.892578 7.797852 L 27.892578 5.950195 L 34.729980 5.950195 L 34.729980 7.797852 Z " fill="rgb(0, 0, 0)" fill-opacity="1.000000" />
<path d="M 34.892578 7.797852 L 34.892578 5.950195 L 41.729980 5.950195 L 41.729980 7.797852 Z " fill="rgb(0, 0, 0)" fill-opacity="1.000000" />
<path d="M 41.892578 7.797852 L 41.892578 5.950195 L 48.729980 5.950195 L 48.729980 7.797852 Z " fill="rgb(0, 0, 0)" fill-opacity="1.000000" />
<path d="M 48.892578 7.797852 L 48.892578 5.950195 L 55.729980 5.950195 L 55.729980 7.797852 Z " fill="rgb(0, 0, 0)" fill-opacity="1.000000" />
<path d="M 55.892578 7.797852 L 55.892578 5.950195 L 62.729980 5.950195 L 62.729980 7.797852 Z " fill="rgb(0, 0, 0)" fill-opacity="1.000000" />
<path d="M 64.154785 1.980957 L 65.245117 1.980957 L 65.245117 9.086914 L 69.117676 9.086914 L 69.117676 10.000000 L 64.154785 10.000000 Z " fill="rgb(0, 0, 0)" fill-opacity="1.000000" />
<path d="M 73.308594 4.677246 Q 72.556641 4.677246 72.169922 5.262695 Q 71.783203 5.848145 71.783203 6.997559 Q 71.783203 8.141602 72.169922 8.729736 Q 72.556641 9.317871 73.308594 9.317871 Q 74.065918 9.317871 74.452637 8.729736 Q 74.839355 8.141602 74.839355 6.997559 Q 74.839355 5.848145 74.452637 5.262695 Q 74.065918 4.677246 73.308594 4.677246 Z M 73.308594 3.839355 Q 74.560059 3.839355 75.223389 4.650391 Q 75.886719 5.461426 75.886719 6.997559 Q 75.886719 8.539062 75.226074 9.347412 Q 74.565430 10.155762 73.308594 10.155762 Q 72.057129 10.155762 71.396484 9.347412 Q 70.735840 8.539062 70.735840 6.997559 Q 70.735840 5.461426 71.396484 4.650391 Q 72.057129 3.839355 73.308594 3.839355 Z " fill="rgb(0, 0, 0)" fill-opacity="1.000000" />
<path d="M 82.698730 9.693848 Q 82.301270 9.924805 81.879639 10.040283 Q 81.458008 10.155762 81.017578 10.155762 Q 79.621094 10.155762 78.834229 9.317871 Q 78.047363 8.479980 78.047363 6.997559 Q 78.047363 5.515137 78.834229 4.677246 Q 79.621094 3.839355 81.017578 3.839355 Q 81.452637 3.839355 81.866211 3.952148 Q 82.279785 4.064941 82.698730 4.301270 L 82.698730 5.337891 Q 82.306641 4.988770 81.911865 4.833008 Q 81.517090 4.677246 81.017578 4.677246 Q 80.088379 4.677246 79.588867 5.278809 Q 79.089355 5.880371 79.089355 6.997559 Q 79.089355 8.109375 79.591553 8.713623 Q 80.093750 9.317871 81.017578 9.317871 Q 81.533203 9.317871 81.941406 9.159424 Q 82.349609 9.000977 82.698730 8.667969 Z " fill="rgb(0, 0, 0)" fill-opacity="1.000000" />
<path d="M 87.770508 6.976074 L 87.442871 6.976074 Q 86.578125 6.976074 86.140381 7.279541 Q 85.702637 7.583008 85.702637 8.184570 Q 85.702637 8.727051 86.030273 9.027832 Q 86.357910 9.328613 86.937988 9.328613 Q 87.754395 9.328613 88.221680 8.761963 Q 88.688965 8.195312 88.694336 7.196289 L 88.694336 6.976074 Z M 89.687988 6.567871 L 89.687988 10.000000 L 88.694336 10.000000 L 88.694336 9.108398 Q 88.377441 9.645508 87.896729 9.900635 Q 87.416016 10.155762 86.728516 10.155762 Q 85.810059 10.155762 85.262207 9.637451 Q 84.714355 9.119141 84.714355 8.249023 Q 84.714355 7.244629 85.388428 6.723633 Q 86.062500 6.202637 87.367676 6.202637 L 88.694336 6.202637 L 88.694336 6.046875 Q 88.688965 5.327148 88.329102 5.002197 Q 87.969238 4.677246 87.179688 4.677246 Q 86.674805 4.677246 86.159180 4.822266 Q 85.643555 4.967285 85.154785 5.246582 L 85.154785 4.258301 Q 85.702637 4.048828 86.204834 3.944092 Q 86.707031 3.839355 87.179688 3.839355 Q 87.926270 3.839355 88.455322 4.059570 Q 88.984375 4.279785 89.312012 4.720215 Q 89.516113 4.988770 89.602051 5.383545 Q 89.687988 5.778320 89.687988 6.567871 Z " fill="rgb(0, 0, 0)" fill-opacity="1.000000" />
<path d="M 94.297852 2.276367 L 94.297852 3.984375 L 96.542969 3.984375 L 96.542969 4.752441 L 94.297852 4.752441 L 94.297852 8.018066 Q 94.297852 8.684082 94.550293 8.947266 Q 94.802734 9.210449 95.431152 9.210449 L 96.542969 9.210449 L 96.542969 10.000000 L 95.334473 10.000000 Q 94.222656 10.000000 93.766113 9.554199 Q 93.309570 9.108398 93.309570 8.018066 L 93.309570 4.752441 L 91.703613 4.752441 L 91.703613 3.984375 L 93.309570 3.984375 L 93.309570 2.276367 Z " fill="rgb(0, 0, 0)" fill-opacity="1.000000" />
<path d="M 99.697266 4.005859 L 102.227051 4.005859 L 102.227051 9.231934 L 104.187500 9.231934 L 104.187500 10.000000 L 99.278320 10.000000 L 99.278320 9.231934 L 101.238770 9.231934 L 101.238770 4.773926 L 99.697266 4.773926 Z M 101.238770 1.669434 L 102.227051 1.669434 L 102.227051 2.915527 L 101.238770 2.915527 Z " fill="rgb(0, 0, 0)" fill-opacity="1.000000" />
<path d="M 108.308594 4.677246 Q 107.556641 4.677246 107.169922 5.262695 Q 106.783203 5.848145 106.783203 6.997559 Q 106.783203 8.141602 107.169922 8.729736 Q 107.556641 9.317871 108.308594 9.317871 Q 109.065918 9.317871 109.452637 8.729736 Q 109.839355 8.141602 109.839355 6.997559 Q 109.839355 5.848145 109.452637 5.262695 Q 109.065918 4.677246 108.308594 4.677246 Z M 108.308594 3.839355 Q 109.560059 3.839355 110.223389 4.650391 Q 110.886719 5.461426 110.886719 6.997559 Q 110.886719 8.539062 110.226074 9.347412 Q 109.565430 10.155762 108.308594 10.155762 Q 107.057129 10.155762 106.396484 9.347412 Q 105.735840 8.539062 105.735840 6.997559 Q 105.735840 5.461426 106.396484 4.650391 Q 107.057129 3.839355 108.308594 3.839355 Z " fill="rgb(0, 0, 0)" fill-opacity="1.000000" />
<path d="M 117.645020 6.272461 L 117.645020 10.000000 L 116.651367 10.000000 L 116.651367 6.272461 Q 116.651367 5.461426 116.366699 5.080078 Q 116.082031 4.698730 115.475098 4.698730 Q 114.782227 4.698730 114.408936 5.190186 Q 114.035645 5.681641 114.035645 6.600098 L 114.035645 10.000000 L 113.047363 10.000000 L 113.047363 3.984375 L 114.035645 3.984375 L 114.035645 4.886719 Q 114.298828 4.371094 114.750000 4.105225 Q 115.201172 3.839355 115.818848 3.839355 Q 116.737305 3.839355 117.191162 4.443604 Q 117.645020 5.047852 117.645020 6.272461 Z " fill="rgb(0, 0, 0)" fill-opacity="1.000000" />
<path d="M 129.201172 6.444336 Q 129.894043 6.444336 130.288818 5.944824 Q 130.683594 5.445312 130.683594 4.564453 Q 130.683594 3.683594 130.288818 3.184082 Q 129.894043 2.684570 129.201172 2.684570 Q 128.481445 2.684570 128.116211 3.159912 Q 127.750977 3.635254 127.750977 4.564453 Q 127.750977 5.499023 128.113525 5.971680 Q 128.476074 6.444336 129.201172 6.444336 Z M 127.267578 9.833496 L 127.267578 8.834473 Q 127.605957 9.033203 127.987305 9.137939 Q 128.368652 9.242676 128.782227 9.242676 Q 129.813477 9.242676 130.342529 8.466553 Q 130.871582 7.690430 130.871582 6.181152 Q 130.619141 6.718262 130.162598 7.005615 Q 129.706055 7.292969 129.115234 7.292969 Q 127.955078 7.292969 127.318604 6.578613 Q 126.682129 5.864258 126.682129 4.553711 Q 126.682129 3.259277 127.334717 2.547607 Q 127.987305 1.835938 129.179688 1.835938 Q 130.576172 1.835938 131.226074 2.840332 Q 131.875977 3.844727 131.875977 5.998535 Q 131.875977 8.023438 131.094482 9.089600 Q 130.312988 10.155762 128.825195 10.155762 Q 128.433105 10.155762 128.035645 10.072510 Q 127.638184 9.989258 127.267578 9.833496 Z " fill="rgb(0, 0, 0)" fill-opacity="1.000000" />
<path d="M 132.892578 7.797852 L 132.892578 5.950195 L 139.729980 5.950195 L 139.729980 7.797852 Z " fill="rgb(0, 0, 0)" fill-opacity="1.000000" />
<path d="M 139.892578 7.797852 L 139.892578 5.950195 L 146.729980 5.950195 L 146.729980 7.797852 Z " fill="rgb(0, 0, 0)" fill-opacity="1.000000" />
<path d="M 146.892578 7.797852 L 146.892578 5.950195 L 153.729980 5.950195 L 153.729980 7.797852 Z " fill="rgb(0, 0, 0)" fill-opacity="1.000000" />
<path d="M 153.892578 7.797852 L 153.892578 5.950195 L 160.729980 5.950195 L 160.729980 7.797852 Z " fill="rgb(0, 0, 0)" fill-opacity="1.000000" />
<path d="M 160.892578 7.797852 L 160.892578 5.950195 L 167.729980 5.950195 L 167.729980 7.797852 Z " fill="rgb(0, 0, 0)" fill-opacity="1.000000" />
<path d="M 167.892578 7.797852 L 167.892578 5.950195 L 174.729980 5.950195 L 174.729980 7.797852 Z " fill="rgb(0, 0, 0)" fill-opacity="1.000000" />
<path d="M 174.892578 7.797852 L 174.892578 5.950195 L 181.729980 5.950195 L 181.729980 7.797852 Z " fill="rgb(0, 0, 0)" fill-opacity="1.000000" />
<path d="M 181.892578 7.797852 L 181.892578 5.950195 L 188.729980 5.950195 L 188.729980 7.797852 Z " fill="rgb(0, 0, 0)" fill-opacity="1.000000" />
<path d="M 191.449219 13.319336 L 191.449219 7.797852 L 188.892578 7.797852 L 188.892578 5.950195 L 193.167969 5.950195 L 193.167969 13.319336 Z " fill="rgb(0, 0, 0)" fill-opacity="1.000000" />
</svg>